<?xml version="1.0" encoding="utf-8" standalone="yes"?>
<!DOCTYPE svg PUBLIC "-//W3C//DTD SVG 1.1//EN" "http://www.w3.org/Graphics/SVG/1.1/DTD/svg11.dtd">
<svg width="696" height="439" viewBox="0 0 696 439" style="fill:none;stroke:none;fill-rule:evenodd;clip-rule:evenodd;stroke-linecap:round;stroke-linejoin:round;stroke-miterlimit:1.5;" version="1.1" xmlns="http://www.w3.org/2000/svg" xmlns:xlink="http://www.w3.org/1999/xlink"><style id="fontImports">@import url("https://fonts.googleapis.com/css2?family=Roboto:wght@400;700&amp;display=block");</style><g id="items" style="isolation: isolate"><g id="blend" style="mix-blend-mode:normal"><g id="g-root--1.cu_sy_146qotq1dptf62-fill" data-item-order="999847940" data-item-id="-1.cu_sy_146qotq1dptf62" data-item-class="Part Fill Stroke" data-item-index="-1" data-renderer-id="0" transform="translate(314, 9)"><g id="-1.cu_sy_146qotq1dptf62-fill" stroke="none" fill="#fdf1cf"><g><path d="M 65.766602 394C 80.754802 394 106.000002 308.039 106.000002 202C 106.000002 95.9613 80.754802 10 65.766602 10C 80.775202 10.01 92.941702 96.2224 92.941702 202C 92.941702 307.778 80.775202 393.99 65.766602 394ZM 65.765897 394C 80.774597 393.99 92.941097 307.778 92.941097 202C 92.941097 96.2224 80.774597 10.01 65.765897 10L 51.957397 10C 66.060697 16.8878 77.199297 100.4719 77.199297 202C 77.199297 303.528 65.382597 387.112 51.279297 394L 65.765897 394ZM 77.2 202C 77.2 303.528 65.3833 387.112 51.28 394L 50.0615 394C 35.0734 394 10 308.039 10 202C 10 95.9613 35.0734 10 50.0615 10C 50.6991 10 51.9581 10 51.9581 10C 66.0614 16.8878 77.2 100.4719 77.2 202Z"></path></g></g></g><g id="g-root-0.cr-medium_cr_146qotq1dptf63-fill" data-item-order="999847942" data-item-id="0.cr-medium_cr_146qotq1dptf63" data-item-class="Shape Stroke Fill Part Indexed_0" data-item-index="0" data-renderer-id="0" transform="translate(482, 165)"><g id="0.cr-medium_cr_146qotq1dptf63-fill" stroke="none" fill="#fdf1cf"><g><path d="M 10 46C 10 65.882251 26.117749 82 46 82C 65.882251 82 82 65.882251 82 46C 82 26.117749 65.882251 10 46 10C 26.117749 10 10 26.117749 10 46"></path></g></g></g><g id="g-root-5.line_sy_mg35f21dptedo-fill" data-item-order="999847945" data-item-id="5.line_sy_mg35f21dptedo" data-item-class="Curve Stroke Part Indexed" data-item-index="5" data-renderer-id="0" transform="translate(230, 243)"></g><g id="g-root-5.cr-small_cr_mg35f21dptedp-fill" data-item-order="999847946" data-item-id="5.cr-small_cr_mg35f21dptedp" data-item-class="Shape Stroke Fill Part Indexed" data-item-index="5" data-renderer-id="0" transform="translate(170, 339)"><g id="5.cr-small_cr_mg35f21dptedp-fill" stroke="none" fill="#fdf1cf"><g><path d="M 10 40C 10.000002 56.568544 23.431459 70.000002 40.000002 70.000002C 56.568544 70.000002 70.000002 56.568544 70.000002 40.000002C 70.000002 23.431459 56.568544 10.000002 40.000002 10.000002C 23.431459 10.000002 10.000002 23.431459 10.000002 40.000002"></path></g></g></g><g id="g-root-4.line_sy_vbq5ny1dptdky-fill" data-item-order="999847949" data-item-id="4.line_sy_vbq5ny1dptdky" data-item-class="Curve Stroke Part Indexed" data-item-index="4" data-renderer-id="0" transform="translate(230, 225)"></g><g id="g-root-4.cr-small_cr_mg35f21dptedn-fill" data-item-order="999847950" data-item-id="4.cr-small_cr_mg35f21dptedn" data-item-class="Shape Stroke Fill Part Indexed" data-item-index="4" data-renderer-id="0" transform="translate(170, 255)"><g id="4.cr-small_cr_mg35f21dptedn-fill" stroke="none" fill="#fdf1cf"><g><path d="M 10 40C 10.000002 56.568544 23.431459 70.000002 40.000002 70.000002C 56.568544 70.000002 70.000002 56.568544 70.000002 40.000002C 70.000002 23.431459 56.568544 10.000002 40.000002 10.000002C 23.431459 10.000002 10.000002 23.431459 10.000002 40.000002"></path></g></g></g><g id="g-root-3.line_sy_vbq5ny1dptdkw-fill" data-item-order="999847953" data-item-id="3.line_sy_vbq5ny1dptdkw" data-item-class="Curve Stroke Part Indexed" data-item-index="3" data-renderer-id="0" transform="translate(230.109375, 201)"></g><g id="g-root-3.cr-small_cr_vbq5ny1dptdkx-fill" data-item-order="999847954" data-item-id="3.cr-small_cr_vbq5ny1dptdkx" data-item-class="Shape Stroke Fill Part Indexed" data-item-index="3" data-renderer-id="0" transform="translate(170, 171)"><g id="3.cr-small_cr_vbq5ny1dptdkx-fill" stroke="none" fill="#fdf1cf"><g><path d="M 10 40C 10.000002 56.568544 23.431459 70.000002 40.000002 70.000002C 56.568544 70.000002 70.000002 56.568544 70.000002 40.000002C 70.000002 23.431459 56.568544 10.000002 40.000002 10.000002C 23.431459 10.000002 10.000002 23.431459 10.000002 40.000002"></path></g></g></g><g id="g-root-2.line_sy_zrjnse1dptcsm-fill" data-item-order="999847957" data-item-id="2.line_sy_zrjnse1dptcsm" data-item-class="Curve Stroke Part Indexed" data-item-index="2" data-renderer-id="0" transform="translate(230, 117)"></g><g id="g-root-2.cr-small_cr_zrjnse1dptcsn-fill" data-item-order="999847958" data-item-id="2.cr-small_cr_zrjnse1dptcsn" data-item-class="Shape Stroke Fill Part Indexed" data-item-index="2" data-renderer-id="0" transform="translate(170, 87)"><g id="2.cr-small_cr_zrjnse1dptcsn-fill" stroke="none" fill="#fdf1cf"><g><path d="M 10 40C 10.000002 56.568544 23.431459 70.000002 40.000002 70.000002C 56.568544 70.000002 70.000002 56.568544 70.000002 40.000002C 70.000002 23.431459 56.568544 10.000002 40.000002 10.000002C 23.431459 10.000002 10.000002 23.431459 10.000002 40.000002"></path></g></g></g><g id="g-root-1.line_sy_146qotq1dptf64-fill" data-item-order="999847961" data-item-id="1.line_sy_146qotq1dptf64" data-item-class="Curve Stroke Part Indexed Indexed_1" data-item-index="1" data-renderer-id="0" transform="translate(230, 33)"></g><g id="g-root-1.cr-small_cr_zrjnse1dptcsl-fill" data-item-order="999847962" data-item-id="1.cr-small_cr_zrjnse1dptcsl" data-item-class="Shape Stroke Fill Part Indexed Indexed_1" data-item-index="1" data-renderer-id="0" transform="translate(170, 3)"><g id="1.cr-small_cr_zrjnse1dptcsl-fill" stroke="none" fill="#fdf1cf"><g><path d="M 10 40C 10.000002 56.568544 23.431459 70.000002 40.000002 70.000002C 56.568544 70.000002 70.000002 56.568544 70.000002 40.000002C 70.000002 23.431459 56.568544 10.000002 40.000002 10.000002C 23.431459 10.000002 10.000002 23.431459 10.000002 40.000002"></path></g></g></g><g id="g-root-1_1hegfu61dp8cni-fill" data-item-order="1000000000" data-item-id="1_1hegfu61dp8cni" data-item-class="Icon Stroke Indexed InsideFill InsideColorFill" data-item-index="2" data-renderer-id="0" transform="translate(182, 99)"></g><g id="g-root-tx_modelode_qu18a61dpteku-fill" data-item-order="1000000000" data-item-id="tx_modelode_qu18a61dpteku" data-item-class="Label Stroke Indexed" data-item-index="3" data-renderer-id="0" transform="translate(14, 165)"><g id="tx_modelode_qu18a61dpteku-fill" stroke="none" fill="#EAB308"><g><text style="font-style: normal; font-variant-caps: normal; font-weight: normal; font-stretch: normal; font-size: 20px; line-height: normal; font-family: Roboto, sans-serif; font-size-adjust: none; font-kerning: auto; font-variant-alternates: normal; font-variant-ligatures: normal; font-variant-numeric: normal; font-variant-east-asian: normal; font-variant-position: normal; font-variant-emoji: normal; font-feature-settings: normal; font-optical-sizing: auto; font-variation-settings: normal; white-space: pre;"><tspan x="58" y="34" dominant-baseline="ideographic">Modelo de </tspan><tspan x="13" y="58" dominant-baseline="ideographic">Caracterizaci贸n </tspan><tspan x="13" y="82" dominant-baseline="ideographic">de Proveedores</tspan></text></g></g></g><g id="g-root-hand_qp1ir21dpb3sy-fill" data-item-order="1000000000" data-item-id="hand_qp1ir21dpb3sy" data-item-class="Icon Stroke Indexed InsideFill InsideColorFill" data-item-index="5" data-renderer-id="0" transform="translate(182, 351)"></g><g id="g-root-tx_platafor_91i9m61dpterv-fill" data-item-order="1000000000" data-item-id="tx_platafor_91i9m61dpterv" data-item-class="Label Stroke" data-item-index="none" data-renderer-id="0" transform="translate(566, 165)"><g id="tx_platafor_91i9m61dpterv-fill" stroke="none" fill="#EAB308"><g><text style="font-style: normal; font-variant-caps: normal; font-weight: normal; font-stretch: normal; font-size: 20px; line-height: normal; font-family: Roboto, sans-serif; font-size-adjust: none; font-kerning: auto; font-variant-alternates: normal; font-variant-ligatures: normal; font-variant-numeric: normal; font-variant-east-asian: normal; font-variant-position: normal; font-variant-emoji: normal; font-feature-settings: normal; font-optical-sizing: auto; font-variation-settings: normal; white-space: pre;"><tspan x="12" y="34" dominant-baseline="ideographic">Plataforma </tspan><tspan x="12" y="58" dominant-baseline="ideographic">Nueva Los </tspan><tspan x="12" y="82" dominant-baseline="ideographic">Lagos</tspan></text></g></g></g><g id="g-root-sear_18fp25q1dpb4lj-fill" data-item-order="1000000000" data-item-id="sear_18fp25q1dpb4lj" data-item-class="Icon Stroke Indexed InsideFill InsideColorFill" data-item-index="3" data-renderer-id="0" transform="translate(182, 183)"></g><g id="g-root-buil_qnskku1dp9o92-fill" data-item-order="1000000000" data-item-id="buil_qnskku1dp9o92" data-item-class="Icon Stroke InsideFill InsideColorFill" data-item-index="none" data-renderer-id="0" transform="translate(494, 177)"></g><g id="g-root-tx_modelode_93dovi1dptds7-fill" data-item-order="1000000000" data-item-id="tx_modelode_93dovi1dptds7" data-item-class="Label Stroke Indexed" data-item-index="2" data-renderer-id="0" transform="translate(50, 93)"><g id="tx_modelode_93dovi1dptds7-fill" stroke="none" fill="#EAB308"><g><text style="font-style: normal; font-variant-caps: normal; font-weight: normal; font-stretch: normal; font-size: 20px; line-height: normal; font-family: Roboto, sans-serif; font-size-adjust: none; font-kerning: auto; font-variant-alternates: normal; font-variant-ligatures: normal; font-variant-numeric: normal; font-variant-east-asian: normal; font-variant-position: normal; font-variant-emoji: normal; font-feature-settings: normal; font-optical-sizing: auto; font-variation-settings: normal; white-space: pre;"><tspan x="22" y="34" dominant-baseline="ideographic">Modelo de </tspan><tspan x="38" y="58" dominant-baseline="ideographic">Madurez</tspan></text></g></g></g><g id="g-root-tx_cursosde_1d14qwe1dptc79-fill" data-item-order="1000000000" data-item-id="tx_cursosde_1d14qwe1dptc79" data-item-class="Label Stroke Indexed" data-item-index="4" data-renderer-id="0" transform="translate(50, 261)"><g id="tx_cursosde_1d14qwe1dptc79-fill" stroke="none" fill="#EAB308"><g><text style="font-style: normal; font-variant-caps: normal; font-weight: normal; font-stretch: normal; font-size: 20px; line-height: normal; font-family: Roboto, sans-serif; font-size-adjust: none; font-kerning: auto; font-variant-alternates: normal; font-variant-ligatures: normal; font-variant-numeric: normal; font-variant-east-asian: normal; font-variant-position: normal; font-variant-emoji: normal; font-feature-settings: normal; font-optical-sizing: auto; font-variation-settings: normal; white-space: pre;"><tspan x="26" y="34" dominant-baseline="ideographic">Cursos de </tspan><tspan x="20" y="58" dominant-baseline="ideographic">Formaci贸n</tspan></text></g></g></g><g id="g-root-user_qp1ir21dpb3sz-fill" data-item-order="1000000000" data-item-id="user_qp1ir21dpb3sz" data-item-class="Icon Stroke Indexed Indexed_1 InsideFill InsideColorFill" data-item-index="1" data-renderer-id="0" transform="translate(182, 15)"></g><g id="g-root-tx_situacin_1ut18ha1dptf60-fill" data-item-order="1000000000" data-item-id="tx_situacin_1ut18ha1dptf60" data-item-class="Label Stroke Indexed Indexed_1" data-item-index="1" data-renderer-id="0" transform="translate(2, 21)"><g id="tx_situacin_1ut18ha1dptf60-fill" stroke="none" fill="#ce9e07"><g><text style="font-style: normal; font-variant-caps: normal; font-weight: normal; font-stretch: normal; font-size: 20px; line-height: normal; font-family: Roboto, sans-serif; font-size-adjust: none; font-kerning: auto; font-variant-alternates: normal; font-variant-ligatures: normal; font-variant-numeric: normal; font-variant-east-asian: normal; font-variant-position: normal; font-variant-emoji: normal; font-feature-settings: normal; font-optical-sizing: auto; font-variation-settings: normal; white-space: pre;"><tspan x="19" y="34" dominant-baseline="ideographic">Situaci贸n Actual</tspan></text></g></g></g><g id="g-root-2_13zvk1a1dpb5ds-fill" data-item-order="1000000000" data-item-id="2_13zvk1a1dpb5ds" data-item-class="Icon Stroke Indexed InsideFill InsideColorFill" data-item-index="4" data-renderer-id="0" transform="translate(182, 267)"></g><g id="g-root-tx_vinculac_1qbys6m1dptds4-fill" data-item-order="1000000000" data-item-id="tx_vinculac_1qbys6m1dptds4" data-item-class="Label Stroke Indexed" data-item-index="5" data-renderer-id="0" transform="translate(38, 321)"><g id="tx_vinculac_1qbys6m1dptds4-fill" stroke="none" fill="#EAB308"><g><text style="font-style: normal; font-variant-caps: normal; font-weight: normal; font-stretch: normal; font-size: 20px; line-height: normal; font-family: Roboto, sans-serif; font-size-adjust: none; font-kerning: auto; font-variant-alternates: normal; font-variant-ligatures: normal; font-variant-numeric: normal; font-variant-east-asian: normal; font-variant-position: normal; font-variant-emoji: normal; font-feature-settings: normal; font-optical-sizing: auto; font-variation-settings: normal; white-space: pre;"><tspan x="24" y="34" dominant-baseline="ideographic">Vinculaci贸n </tspan><tspan x="43" y="58" dominant-baseline="ideographic">Empresa-</tspan><tspan x="37" y="82" dominant-baseline="ideographic">Proveedor </tspan><tspan x="12" y="106" dominant-baseline="ideographic">basada en IA</tspan></text></g></g></g><g id="g-root--1.cu_sy_146qotq1dptf62-stroke" data-item-order="999847940" data-item-id="-1.cu_sy_146qotq1dptf62" data-item-class="Part Fill Stroke" data-item-index="-1" data-renderer-id="0" transform="translate(314, 9)"><g id="-1.cu_sy_146qotq1dptf62-stroke" fill="none" stroke-linecap="round" stroke-linejoin="round" stroke-miterlimit="4" stroke="#ce9e07" stroke-width="2"><g><path d="M 65.766602 394C 80.754802 394 106.000002 308.0387 106.000002 202C 106.000002 95.9613 80.754802 10 65.766602 10C 80.775202 10.01 92.941702 96.2224 92.941702 202C 92.941702 307.7776 80.775202 393.99 65.766602 394ZM 65.765897 394C 80.774597 393.99 92.941097 307.7776 92.941097 202C 92.941097 96.2224 80.774597 10.01 65.765897 10L 51.957397 10C 66.060697 16.8878 77.199297 100.4719 77.199297 202C 77.199297 303.5282 65.382597 387.1122 51.279297 394L 65.765897 394ZM 77.2 202C 77.2 303.5282 65.3833 387.1122 51.28 394L 50.0615 394C 35.0734 394 10 308.0387 10 202C 10 95.9613 35.0734 10 50.0615 10C 50.6991 10 51.9581 10 51.9581 10C 66.0614 16.8878 77.2 100.4719 77.2 202Z"></path></g></g></g><g id="g-root-0.cr-medium_cr_146qotq1dptf63-stroke" data-item-order="999847942" data-item-id="0.cr-medium_cr_146qotq1dptf63" data-item-class="Shape Stroke Fill Part Indexed_0" data-item-index="0" data-renderer-id="0" transform="translate(482, 165)"><g id="0.cr-medium_cr_146qotq1dptf63-stroke" fill="none" stroke-linecap="round" stroke-linejoin="round" stroke-miterlimit="4" stroke="#ce9e07" stroke-width="2"><g><path d="M 10 46C 10 65.882251 26.117749 82 46 82C 65.882251 82 82 65.882251 82 46C 82 26.117749 65.882251 10 46 10C 26.117749 10 10 26.117749 10 46"></path></g></g></g><g id="g-root-5.line_sy_mg35f21dptedo-stroke" data-item-order="999847945" data-item-id="5.line_sy_mg35f21dptedo" data-item-class="Curve Stroke Part Indexed" data-item-index="5" data-renderer-id="0" transform="translate(230, 243)"><g id="5.line_sy_mg35f21dptedo-stroke" fill="none" stroke-linecap="round" stroke-linejoin="round" stroke-miterlimit="4" stroke="#EAB308" stroke-width="2"><g><path d="M 272.49 11.320068L 130 136.000068L 10 136.000068"></path><path d="M 272.3 20.120068L 272.9 11.020068L 263.7 10.420068" stroke-dasharray="none"></path></g></g></g><g id="g-root-5.cr-small_cr_mg35f21dptedp-stroke" data-item-order="999847946" data-item-id="5.cr-small_cr_mg35f21dptedp" data-item-class="Shape Stroke Fill Part Indexed" data-item-index="5" data-renderer-id="0" transform="translate(170, 339)"><g id="5.cr-small_cr_mg35f21dptedp-stroke" fill="none" stroke-linecap="round" stroke-linejoin="round" stroke-miterlimit="4" stroke="#ce9e07" stroke-width="2"><g><path d="M 10 40C 10.000002 56.568544 23.431459 70.000002 40.000002 70.000002C 56.568544 70.000002 70.000002 56.568544 70.000002 40.000002C 70.000002 23.431459 56.568544 10.000002 40.000002 10.000002C 23.431459 10.000002 10.000002 23.431459 10.000002 40.000002"></path></g></g></g><g id="g-root-4.line_sy_vbq5ny1dptdky-stroke" data-item-order="999847949" data-item-id="4.line_sy_vbq5ny1dptdky" data-item-class="Curve Stroke Part Indexed" data-item-index="4" data-renderer-id="0" transform="translate(230, 225)"><g id="4.line_sy_vbq5ny1dptdky-stroke" fill="none" stroke-linecap="round" stroke-linejoin="round" stroke-miterlimit="4" stroke="#EAB308" stroke-width="2"><g><path d="M 254.19 10.859863L 130 69.999863L 10 69.999863"></path><path d="M 251.6 19.259863L 254.6 10.659863L 246 7.559863" stroke-dasharray="none"></path></g></g></g><g id="g-root-4.cr-small_cr_mg35f21dptedn-stroke" data-item-order="999847950" data-item-id="4.cr-small_cr_mg35f21dptedn" data-item-class="Shape Stroke Fill Part Indexed" data-item-index="4" data-renderer-id="0" transform="translate(170, 255)"><g id="4.cr-small_cr_mg35f21dptedn-stroke" fill="none" stroke-linecap="round" stroke-linejoin="round" stroke-miterlimit="4" stroke="#ce9e07" stroke-width="2"><g><path d="M 10 40C 10.000002 56.568544 23.431459 70.000002 40.000002 70.000002C 56.568544 70.000002 70.000002 56.568544 70.000002 40.000002C 70.000002 23.431459 56.568544 10.000002 40.000002 10.000002C 23.431459 10.000002 10.000002 23.431459 10.000002 40.000002"></path></g></g></g><g id="g-root-3.line_sy_vbq5ny1dptdkw-stroke" data-item-order="999847953" data-item-id="3.line_sy_vbq5ny1dptdkw" data-item-class="Curve Stroke Part Indexed" data-item-index="3" data-renderer-id="0" transform="translate(230.109375, 201)"><g id="3.line_sy_vbq5ny1dptdkw-stroke" fill="none" stroke-linecap="round" stroke-linejoin="round" stroke-miterlimit="4" stroke="#EAB308" stroke-width="2"><g><path d="M 247.89061 10L 129.89061 10L 10.00061 10"></path><path d="M 241.90061 16.5L 248.40061 10L 241.90061 3.5" stroke-dasharray="none"></path></g></g></g><g id="g-root-3.cr-small_cr_vbq5ny1dptdkx-stroke" data-item-order="999847954" data-item-id="3.cr-small_cr_vbq5ny1dptdkx" data-item-class="Shape Stroke Fill Part Indexed" data-item-index="3" data-renderer-id="0" transform="translate(170, 171)"><g id="3.cr-small_cr_vbq5ny1dptdkx-stroke" fill="none" stroke-linecap="round" stroke-linejoin="round" stroke-miterlimit="4" stroke="#ce9e07" stroke-width="2"><g><path d="M 10 40C 10.000002 56.568544 23.431459 70.000002 40.000002 70.000002C 56.568544 70.000002 70.000002 56.568544 70.000002 40.000002C 70.000002 23.431459 56.568544 10.000002 40.000002 10.000002C 23.431459 10.000002 10.000002 23.431459 10.000002 40.000002"></path></g></g></g><g id="g-root-2.line_sy_zrjnse1dptcsm-stroke" data-item-order="999847957" data-item-id="2.line_sy_zrjnse1dptcsm" data-item-class="Curve Stroke Part Indexed" data-item-index="2" data-renderer-id="0" transform="translate(230, 117)"><g id="2.line_sy_zrjnse1dptcsm-stroke" fill="none" stroke-linecap="round" stroke-linejoin="round" stroke-miterlimit="4" stroke="#EAB308" stroke-width="2"><g><path d="M 254.19 69.14L 130 10L 10 10"></path><path d="M 246 72.4L 254.6 69.4L 251.6 60.7" stroke-dasharray="none"></path></g></g></g><g id="g-root-2.cr-small_cr_zrjnse1dptcsn-stroke" data-item-order="999847958" data-item-id="2.cr-small_cr_zrjnse1dptcsn" data-item-class="Shape Stroke Fill Part Indexed" data-item-index="2" data-renderer-id="0" transform="translate(170, 87)"><g id="2.cr-small_cr_zrjnse1dptcsn-stroke" fill="none" stroke-linecap="round" stroke-linejoin="round" stroke-miterlimit="4" stroke="#ce9e07" stroke-width="2"><g><path d="M 10 40C 10.000002 56.568544 23.431459 70.000002 40.000002 70.000002C 56.568544 70.000002 70.000002 56.568544 70.000002 40.000002C 70.000002 23.431459 56.568544 10.000002 40.000002 10.000002C 23.431459 10.000002 10.000002 23.431459 10.000002 40.000002"></path></g></g></g><g id="g-root-1.line_sy_146qotq1dptf64-stroke" data-item-order="999847961" data-item-id="1.line_sy_146qotq1dptf64" data-item-class="Curve Stroke Part Indexed Indexed_1" data-item-index="1" data-renderer-id="0" transform="translate(230, 33)"><g id="1.line_sy_146qotq1dptf64-stroke" fill="none" stroke-linecap="round" stroke-linejoin="round" stroke-miterlimit="4" stroke="#ce9e07" stroke-width="2"><g><path d="M 272.49 134.68L 130 10L 10 10"></path><path d="M 263.7 135.6L 272.9 135L 272.3 125.8" stroke-dasharray="none"></path></g></g></g><g id="g-root-1.cr-small_cr_zrjnse1dptcsl-stroke" data-item-order="999847962" data-item-id="1.cr-small_cr_zrjnse1dptcsl" data-item-class="Shape Stroke Fill Part Indexed Indexed_1" data-item-index="1" data-renderer-id="0" transform="translate(170, 3)"><g id="1.cr-small_cr_zrjnse1dptcsl-stroke" fill="none" stroke-linecap="round" stroke-linejoin="round" stroke-miterlimit="4" stroke="#ce9e07" stroke-width="2"><g><path d="M 10 40C 10.000002 56.568544 23.431459 70.000002 40.000002 70.000002C 56.568544 70.000002 70.000002 56.568544 70.000002 40.000002C 70.000002 23.431459 56.568544 10.000002 40.000002 10.000002C 23.431459 10.000002 10.000002 23.431459 10.000002 40.000002"></path></g></g></g><g id="g-root-1_1hegfu61dp8cni-stroke" data-item-order="1000000000" data-item-id="1_1hegfu61dp8cni" data-item-class="Icon Stroke Indexed InsideFill InsideColorFill" data-item-index="2" data-renderer-id="0" transform="translate(182, 99)"><g id="1_1hegfu61dp8cni-stroke" fill="none" stroke-linecap="round" stroke-linejoin="round" stroke-miterlimit="4" stroke="#EAB308" stroke-width="2"><g><path d="M 45.25 42.082001C 41.5 42.863503 39.16 39.113503 39.16 39.113503L 39.16 39.113503C 37.981289 40.987354 35.941639 42.145462 33.7285 42.197502C 31.629511 42.158569 29.719667 40.975491 28.75 39.113503L 28.75 39.113503C 27.335381 40.953575 25.185059 42.080818 22.867001 42.197502C 20.66984 42.093292 18.65402 40.947762 17.439999 39.113499L 17.440001 39.113503C 17.440001 39.113503 14.440001 42.926498 10.7575 42.143501M 41.5 24.227499C 34.45837 24.227499 28.75 29.935869 28.75 36.977501C 35.79163 36.977501 41.5 31.269131 41.5 24.227499ZM 32.105499 28.360001C 33.890396 23.252874 32.592705 17.574753 28.766499 13.75C 24.926315 17.590422 23.635944 23.296413 25.450001 28.415501M 16 24.227499C 23.041632 24.227499 28.75 29.935869 28.75 36.977501C 21.70837 36.977501 16 31.269131 16 24.227499ZM 28.751501 39.25L 28.751501 36.227501"></path></g></g></g><g id="g-root-tx_modelode_qu18a61dpteku-stroke" data-item-order="1000000000" data-item-id="tx_modelode_qu18a61dpteku" data-item-class="Label Stroke Indexed" data-item-index="3" data-renderer-id="0" transform="translate(14, 165)"></g><g id="g-root-hand_qp1ir21dpb3sy-stroke" data-item-order="1000000000" data-item-id="hand_qp1ir21dpb3sy" data-item-class="Icon Stroke Indexed InsideFill InsideColorFill" data-item-index="5" data-renderer-id="0" transform="translate(182, 351)"><g id="hand_qp1ir21dpb3sy-stroke" fill="none" stroke-linecap="round" stroke-linejoin="round" stroke-miterlimit="4" stroke="#EAB308" stroke-width="2"><g><path d="M 10.75 45.25L 10.75 30.25M 10.75 33.25L 21.25 33.25C 23.735283 33.25 25.75 35.264717 25.75 37.75L 34.75 37.75C 37.235283 37.75 39.25 39.764717 39.25 42.25L 10.75 42.25ZM 25.75 37.75L 21.25 37.75M 31.375 21.625C 31.167892 21.625 31 21.792892 31 22C 31 22.207108 31.167892 22.375 31.375 22.375C 31.582108 22.375 31.75 22.207108 31.75 22C 31.75 21.792892 31.582108 21.625 31.375 21.625L 31.375 21.625M 45.25 22C 45.25 19.928932 43.571068 18.25 41.5 18.25L 29.5 18.25C 27.428932 18.25 25.75 19.928932 25.75 22C 25.75 24.071068 27.428932 25.75 29.5 25.75L 41.5 25.75C 43.571068 25.75 45.25 24.071068 45.25 22ZM 31.375 29.125C 31.167892 29.125 31 29.292892 31 29.5C 31 29.707108 31.167892 29.875 31.375 29.875C 31.582108 29.875 31.75 29.707108 31.75 29.5C 31.75 29.292892 31.582108 29.125 31.375 29.125L 31.375 29.125M 45.25 29.5C 45.25 27.428932 43.571068 25.75 41.5 25.75L 29.5 25.75C 27.428932 25.75 25.75 27.428932 25.75 29.5C 25.75 31.571068 27.428932 33.25 29.5 33.25L 41.5 33.25C 43.571068 33.25 45.25 31.571068 45.25 29.5ZM 31.375 14.125C 31.167892 14.125 31 14.292893 31 14.5C 31 14.707107 31.167892 14.875 31.375 14.875C 31.582108 14.875 31.75 14.707107 31.75 14.5C 31.75 14.292893 31.582108 14.125 31.375 14.125L 31.375 14.125M 45.25 14.5C 45.25 12.428932 43.571068 10.75 41.5 10.75L 29.5 10.75C 27.428932 10.75 25.75 12.428932 25.75 14.5C 25.75 16.571068 27.428932 18.25 29.5 18.25L 41.5 18.25C 43.571068 18.25 45.25 16.571068 45.25 14.5Z"></path></g></g></g><g id="g-root-tx_platafor_91i9m61dpterv-stroke" data-item-order="1000000000" data-item-id="tx_platafor_91i9m61dpterv" data-item-class="Label Stroke" data-item-index="none" data-renderer-id="0" transform="translate(566, 165)"></g><g id="g-root-sear_18fp25q1dpb4lj-stroke" data-item-order="1000000000" data-item-id="sear_18fp25q1dpb4lj" data-item-class="Icon Stroke Indexed InsideFill InsideColorFill" data-item-index="3" data-renderer-id="0" transform="translate(182, 183)"><g id="sear_18fp25q1dpb4lj-stroke" fill="none" stroke-linecap="round" stroke-linejoin="round" stroke-miterlimit="4" stroke="#EAB308" stroke-width="2"><g><path d="M 28.75 45.25L 12.25 45.25C 11.421573 45.25 10.75 44.578426 10.75 43.75L 10.75 12.25C 10.75 11.421573 11.421573 10.75 12.25 10.75L 32.185001 10.75C 32.584351 10.748889 32.967659 10.907071 33.25 11.1895L 38.800003 16.75C 39.081322 17.031239 39.239414 17.412708 39.239502 17.810499L 39.239502 24.25M 15.2455 33.25L 24.245499 33.25M 17.5 25.75L 19 25.75C 19.414213 25.75 19.75 26.085787 19.75 26.5L 19.75 33.25L 19.75 33.25L 16.75 33.25L 16.75 33.25L 16.75 26.5C 16.75 26.085787 17.085787 25.75 17.5 25.75ZM 25.75 28.75L 25.75 22C 25.75 21.585787 25.414213 21.25 25 21.25L 23.5 21.25C 23.085787 21.25 22.75 21.585787 22.75 22L 22.75 33.25M 28.745499 35.543499C 28.745499 39.295444 31.787052 42.336998 35.538998 42.336998C 39.290947 42.336998 42.3325 39.295444 42.3325 35.543499C 42.3325 31.791553 39.290947 28.75 35.538998 28.75C 31.787052 28.75 28.745499 31.791553 28.745499 35.543499ZM 45.245499 45.25L 40.373501 40.378002"></path></g></g></g><g id="g-root-buil_qnskku1dp9o92-stroke" data-item-order="1000000000" data-item-id="buil_qnskku1dp9o92" data-item-class="Icon Stroke InsideFill InsideColorFill" data-item-index="none" data-renderer-id="0" transform="translate(494, 177)"><g id="buil_qnskku1dp9o92-stroke" fill="none" stroke-linecap="round" stroke-linejoin="round" stroke-miterlimit="4" stroke="#EAB308" stroke-width="2"><g><path d="M 11 57L 57 57M 52 21C 54.737476 21.008759 56.973049 18.814545 57.0154 16.077381C 57.057751 13.340217 54.891136 11.077888 52.154697 11.00195C 49.418262 10.926011 47.129513 13.0647 47.02 15.8C 46.032772 14.884805 44.556789 14.739281 43.409843 15.444059C 42.262897 16.148838 41.725853 17.53133 42.096268 18.825546C 42.466682 20.119759 43.653851 21.008768 45 21ZM 31 57L 31 34C 31 33.447716 30.552284 33 30 33L 28 33C 27.447716 33 27 32.552284 27 32L 27 26C 27 25.447716 27.447716 25 28 25L 30 25C 30.552284 25 31 24.552284 31 24L 31 14.988L 17.504 22.700001C 17.192448 22.877964 17.000116 23.209202 17 23.568001L 17 57M 31 14.988L 31 11M 37 57L 37 45.987999C 37 45.435715 37.447716 44.987999 38 44.987999L 41 44.987999L 41 36C 41 35.447716 40.552284 35 40 35L 38 35C 37.447716 35 37 34.552284 37 34L 37 22.987999L 50.582001 32.700001C 50.844585 32.887932 51.000263 33.191093 51 33.514L 51 57M 37 22.987999L 37 16.987999M 45 37L 45 41M 23 25.987999L 23 31.988001M 27 38.987999L 31 38.987999M 27 44.987999L 31 44.987999M 27 50.987999L 31 50.987999M 37 51L 41 51"></path></g></g></g><g id="g-root-tx_modelode_93dovi1dptds7-stroke" data-item-order="1000000000" data-item-id="tx_modelode_93dovi1dptds7" data-item-class="Label Stroke Indexed" data-item-index="2" data-renderer-id="0" transform="translate(50, 93)"></g><g id="g-root-tx_cursosde_1d14qwe1dptc79-stroke" data-item-order="1000000000" data-item-id="tx_cursosde_1d14qwe1dptc79" data-item-class="Label Stroke Indexed" data-item-index="4" data-renderer-id="0" transform="translate(50, 261)"></g><g id="g-root-user_qp1ir21dpb3sz-stroke" data-item-order="1000000000" data-item-id="user_qp1ir21dpb3sz" data-item-class="Icon Stroke Indexed Indexed_1 InsideFill InsideColorFill" data-item-index="1" data-renderer-id="0" transform="translate(182, 15)"><g id="user_qp1ir21dpb3sz-stroke" fill="none" stroke-linecap="round" stroke-linejoin="round" stroke-miterlimit="4" stroke="#ce9e07" stroke-width="2"><g><path d="M 26.5 28.75C 21.529438 28.75 17.5 24.720562 17.5 19.75C 17.5 14.779438 21.529438 10.75 26.5 10.75ZM 12.25 45.25C 12.25 37.379944 18.629942 31 26.5 31L 26.5 45.25ZM 29.5 28.75C 30.002895 28.746988 30.50465 28.70183 31 28.615002L 31 26.32C 31.737789 26.150751 32.441353 25.85705 33.080498 25.4515L 34.709499 27.0805C 35.530037 26.496971 36.246971 25.780039 36.830498 24.959499L 35.199997 23.3305C 35.606075 22.691456 35.900284 21.987885 36.07 21.25L 38.364998 21.25C 38.451828 20.75465 38.496986 20.252893 38.5 19.75C 38.496986 19.247107 38.451828 18.74535 38.364998 18.25L 36.07 18.25C 35.900284 17.512114 35.606075 16.808544 35.199997 16.1695L 36.828999 14.5405C 36.245472 13.719961 35.528538 13.00303 34.708 12.4195L 33.080502 14.05C 32.441452 13.643923 31.737885 13.349712 30.999998 13.18L 31 10.885C 30.50465 10.79817 30.002895 10.753013 29.5 10.75M 29.5 16.75C 31.156855 16.75 32.5 18.093145 32.5 19.75C 32.5 21.406855 31.156855 22.75 29.5 22.75M 43.75 45.25C 43.744587 44.496021 43.679382 43.743664 43.555 42.999996L 40.523502 43C 40.323086 42.026867 39.993149 41.084984 39.542503 40.199501L 41.749001 37.994499C 40.716793 36.252941 39.326656 34.750324 37.670502 33.586002L 35.5075 35.7505C 34.579052 35.159893 33.568016 34.710487 32.5075 34.417L 32.5075 31.3225C 31.519201 31.109098 30.511076 31.000994 29.5 31M 29.5 39.25C 32.813709 39.25 35.5 41.936291 35.5 45.25"></path></g></g></g><g id="g-root-tx_situacin_1ut18ha1dptf60-stroke" data-item-order="1000000000" data-item-id="tx_situacin_1ut18ha1dptf60" data-item-class="Label Stroke Indexed Indexed_1" data-item-index="1" data-renderer-id="0" transform="translate(2, 21)"></g><g id="g-root-2_13zvk1a1dpb5ds-stroke" data-item-order="1000000000" data-item-id="2_13zvk1a1dpb5ds" data-item-class="Icon Stroke Indexed InsideFill InsideColorFill" data-item-index="4" data-renderer-id="0" transform="translate(182, 267)"><g id="2_13zvk1a1dpb5ds-stroke" fill="none" stroke-linecap="round" stroke-linejoin="round" stroke-miterlimit="4" stroke="#EAB308" stroke-width="2"><g><path d="M 25.774 34.75L 12.274 34.75C 11.445573 34.75 10.774 34.078426 10.774 33.25L 10.774 12.25C 10.774 11.421573 11.445573 10.75 12.274 10.75L 42.274002 10.75C 43.102428 10.75 43.774002 11.421573 43.774002 12.25L 43.774002 31.75M 16.743999 16.75L 27.976 27.982M 27.976 23.1805L 27.976 27.982L 23.1745 27.982M 16.743999 21.5515L 16.743999 16.75L 21.5455 16.75M 45.225998 45.25L 45.225998 41.248001C 45.224346 38.487198 42.985806 36.25 40.225002 36.250004L 37.725998 36.25L 37.725998 29.5C 37.726002 28.25736 36.718643 27.25 35.476002 27.25C 34.23336 27.25 33.226002 28.25736 33.226002 29.5L 33.226002 40L 31.299999 38.378502C 30.637259 37.582382 29.454618 37.474258 28.658501 38.137001C 27.862381 38.79974 27.754257 39.982384 28.417 40.7785L 32.127998 45.25"></path></g></g></g><g id="g-root-tx_vinculac_1qbys6m1dptds4-stroke" data-item-order="1000000000" data-item-id="tx_vinculac_1qbys6m1dptds4" data-item-class="Label Stroke Indexed" data-item-index="5" data-renderer-id="0" transform="translate(38, 321)"></g></g></g></svg>