<?xml version="1.0" encoding="utf-8" standalone="yes"?>
<!DOCTYPE svg PUBLIC "-//W3C//DTD SVG 1.1//EN" "http://www.w3.org/Graphics/SVG/1.1/DTD/svg11.dtd">
<svg width="387" height="387" viewBox="0 0 387 387" style="fill:none;stroke:none;fill-rule:evenodd;clip-rule:evenodd;stroke-linecap:round;stroke-linejoin:round;stroke-miterlimit:1.5;" version="1.1" xmlns="http://www.w3.org/2000/svg" xmlns:xlink="http://www.w3.org/1999/xlink"><g id="items" style="isolation: isolate"><g id="blend" style="mix-blend-mode:normal"><g id="g-root-8.cu_sy_mahepr1ethxjf-fill" data-item-order="999870364" data-item-id="8.cu_sy_mahepr1ethxjf" data-item-class="Part Indexed Fill Stroke" data-item-index="8" data-renderer-id="0" transform="translate(182.9998779296875, 234)"></g><g id="g-root-7.cu_sy_mahepr1ethxje-fill" data-item-order="999870366" data-item-id="7.cu_sy_mahepr1ethxje" data-item-class="Part Indexed Fill Stroke" data-item-index="7" data-renderer-id="0" transform="translate(65.30548095703125, 234)"></g><g id="g-root-6.cu_sy_mahepr1ethxjd-fill" data-item-order="999870368" data-item-id="6.cu_sy_mahepr1ethxjd" data-item-class="Part Indexed Fill Stroke" data-item-index="6" data-renderer-id="0" transform="translate(233.99993896484375, 183)"></g><g id="g-root-5.cu_sy_v64eyn1ethwqo-fill" data-item-order="999870370" data-item-id="5.cu_sy_v64eyn1ethwqo" data-item-class="Part Indexed Fill Stroke" data-item-index="5" data-renderer-id="0" transform="translate(3, 182.995849609375)"></g><g id="g-root-4.cu_sy_qqawu71ethwr3-fill" data-item-order="999870372" data-item-id="4.cu_sy_qqawu71ethwr3" data-item-class="Part Indexed Fill Stroke" data-item-index="4" data-renderer-id="0" transform="translate(234.0001220703125, 66.507080078125)"></g><g id="g-root-3.cu_sy_zlxx331ethvye-fill" data-item-order="999870374" data-item-id="3.cu_sy_zlxx331ethvye" data-item-class="Part Indexed Fill Stroke" data-item-index="3" data-renderer-id="0" transform="translate(3.236541748046875, 65.26513671875)"></g><g id="g-root-2.cu_sy_zlxx331ethvyd-fill" data-item-order="999870376" data-item-id="2.cu_sy_zlxx331ethvyd" data-item-class="Part Indexed Fill Stroke" data-item-index="2" data-renderer-id="0" transform="translate(182.92877197265625, 3.253662109375)"></g><g id="g-root-1.cu_sy_zlxx331ethvyc-fill" data-item-order="999870378" data-item-id="1.cu_sy_zlxx331ethvyc" data-item-class="Part Indexed Indexed_1 Fill Stroke" data-item-index="1" data-renderer-id="0" transform="translate(66.54672241210938, 3)"></g><g id="g-root-home_4o7a2n1et9gr1-fill" data-item-order="1000000000" data-item-id="home_4o7a2n1et9gr1" data-item-class="Icon Stroke Indexed Indexed_1 InsideFill InsideColorFill" data-item-index="1" data-renderer-id="0" transform="translate(123, 63)"></g><g id="g-root-chip_1ly1bjz1et9ix7-fill" data-item-order="1000000000" data-item-id="chip_1ly1bjz1et9ix7" data-item-class="Icon Stroke Indexed InsideFill InsideColorFill" data-item-index="2" data-renderer-id="0" transform="translate(207, 63)"></g><g id="g-root-1_8dry71et9hja-fill" data-item-order="1000000000" data-item-id="1_8dry71et9hja" data-item-class="Icon Stroke Indexed InsideFill InsideColorFill" data-item-index="3" data-renderer-id="0" transform="translate(63, 123)"></g><g id="g-root-2_1ly1bjz1et9ix5-fill" data-item-order="1000000000" data-item-id="2_1ly1bjz1et9ix5" data-item-class="Icon Stroke Indexed InsideFill InsideColorFill" data-item-index="4" data-renderer-id="0" transform="translate(267, 124)"></g><g id="g-root-real_909xof1etawwa-fill" data-item-order="1000000000" data-item-id="real_909xof1etawwa" data-item-class="Icon Stroke Indexed InsideFill InsideColorFill" data-item-index="5" data-renderer-id="0" transform="translate(63, 207)"></g><g id="g-root-line_1qdutof1et9i4v-fill" data-item-order="1000000000" data-item-id="line_1qdutof1et9i4v" data-item-class="Icon Stroke Indexed InsideFill InsideColorFill" data-item-index="6" data-renderer-id="0" transform="translate(267, 207)"></g><g id="g-root-glob_1utobsv1et9i4g-fill" data-item-order="1000000000" data-item-id="glob_1utobsv1et9i4g" data-item-class="Icon Stroke Indexed InsideFill InsideColorFill" data-item-index="7" data-renderer-id="0" transform="translate(123, 267)"></g><g id="g-root-tran_1ly1bjz1et9ix6-fill" data-item-order="1000000000" data-item-id="tran_1ly1bjz1et9ix6" data-item-class="Icon Stroke Indexed InsideFill InsideColorFill" data-item-index="8" data-renderer-id="0" transform="translate(207, 267)"></g><g id="g-root-8.cu_sy_mahepr1ethxjf-stroke" data-item-order="999870364" data-item-id="8.cu_sy_mahepr1ethxjf" data-item-class="Part Indexed Fill Stroke" data-item-index="8" data-renderer-id="0" transform="translate(182.9998779296875, 234)"><g id="8.cu_sy_mahepr1ethxjf-stroke" fill="none" stroke-linecap="round" stroke-linejoin="round" stroke-miterlimit="4" stroke="#ce9e07" stroke-width="2"><g><path d="M 45.9209 21.6506C 34.5561 28.1008 22.2172 31.084 10 31.084L 10.0001 108.2435C 12.3647 108.2435 14.7292 108.2435 17.0937 108.1252L 23.5962 139.1101C 29.744 138.637 35.8326 137.8683 41.9804 136.7448L 40.5026 105.1687C 45.5272 104.1043 50.4928 102.8034 55.4583 101.2069L 69.7046 129.4125C 75.4977 127.4021 81.1726 125.0368 86.8474 122.3759L 77.2711 92.278C 79.5765 91.0954 81.8228 89.9128 84.0691 88.6119C 86.3154 87.311 88.5026 86.0101 90.6898 84.591L 111.7342 108.1252C 116.877 104.6365 121.7834 100.8521 126.5125 96.9494L 109.4878 70.3403C 111.5568 68.4481 113.6258 66.5559 115.5765 64.5454C 97.4224 46.3857 79.4007 28.0951 61.1821 10C 56.7174 14.4345 51.6844 18.3852 45.9614 21.6103L 45.9209 21.6506Z"></path></g></g></g><g id="g-root-7.cu_sy_mahepr1ethxje-stroke" data-item-order="999870366" data-item-id="7.cu_sy_mahepr1ethxje" data-item-class="Part Indexed Fill Stroke" data-item-index="7" data-renderer-id="0" transform="translate(65.30548095703125, 234)"><g id="7.cu_sy_mahepr1ethxje-stroke" fill="none" stroke-linecap="round" stroke-linejoin="round" stroke-miterlimit="4" stroke="#ce9e07" stroke-width="2"><g><path d="M 127.6946 31.0909C 108.9301 31.0909 90.6479 23.6162 77.1069 10C 58.9152 28.2928 40.4767 46.2997 22.2365 64.5454C 23.8916 66.2011 25.6059 67.8568 27.3202 69.4533L 10 95.9442C 14.7291 99.9651 19.5764 103.8086 24.601 107.2974L 45.9409 83.8814C 50.2562 86.7197 54.6897 89.3215 59.3005 91.6276L 49.4286 121.6663C 54.9852 124.3272 60.7192 126.6925 66.5123 128.8212L 80.9951 100.7338C 85.9015 102.3303 90.867 103.6904 95.8916 104.8139L 94.1182 136.3309C 100.2069 137.4544 106.2956 138.3413 112.4434 138.8735L 119.1823 107.9478C 121.9606 108.1252 124.7389 108.1844 127.5764 108.1844C 127.5764 82.4864 127.6142 56.7889 127.6142 31.0909L 127.6946 31.0909Z"></path></g></g></g><g id="g-root-6.cu_sy_mahepr1ethxjd-stroke" data-item-order="999870368" data-item-id="6.cu_sy_mahepr1ethxjd" data-item-class="Part Indexed Fill Stroke" data-item-index="6" data-renderer-id="0" transform="translate(233.99993896484375, 183)"><g id="6.cu_sy_mahepr1ethxjd-stroke" fill="none" stroke-linecap="round" stroke-linejoin="round" stroke-miterlimit="4" stroke="#ce9e07" stroke-width="2"><g><path d="M 10 61.19L 10.0404 61.2308L 10 61.2715L 10 61.19ZM 31.0909 10C 31.0909 28.9993 23.6309 47.5109 10.0404 61.2308C 28.0994 79.4328 46.389 97.4115 64.5173 115.5454C 66.1724 113.8897 67.8276 112.1749 69.4237 110.4601L 95.9064 127.7856C 99.9261 123.0551 103.7685 118.2063 107.2562 113.1801L 83.8473 91.8337C 86.6848 87.5172 89.2857 83.0823 91.5912 78.47L 121.6207 88.345C 124.2808 82.7866 126.6453 77.0509 128.7734 71.256L 100.6946 56.7688C 102.2907 51.8609 103.6503 46.8939 104.7734 41.8677L 136.2808 43.6417C 137.404 37.5512 138.2907 31.4606 138.8227 25.311L 107.9064 18.57C 108.0838 15.7908 108.1429 13.0116 108.1429 10.1733C 82.4549 10.1733 56.7801 10 31.0909 10Z"></path></g></g></g><g id="g-root-5.cu_sy_v64eyn1ethwqo-stroke" data-item-order="999870370" data-item-id="5.cu_sy_v64eyn1ethwqo" data-item-class="Part Indexed Fill Stroke" data-item-index="5" data-renderer-id="0" transform="translate(3, 182.995849609375)"><g id="5.cu_sy_v64eyn1ethwqo-stroke" fill="none" stroke-linecap="round" stroke-linejoin="round" stroke-miterlimit="4" stroke="#ce9e07" stroke-width="2"><g><path d="M 117.916 10.004109C 117.916 22.221209 120.8992 34.560109 127.3494 45.924909L 127.3897 45.965509C 130.6148 51.688509 134.5655 56.721409 139 61.186209C 120.9159 79.393709 102.6853 97.459509 84.5419 115.608509C 82.532 113.657109 80.6404 111.587609 78.7488 109.518009L 52.1478 126.547809C 48.2463 121.817309 44.4631 116.909409 40.9754 111.765009L 64.5025 90.714209C 63.0837 88.526309 61.7833 86.338509 60.4828 84.091509C 59.1823 81.844509 58 79.597509 56.8177 77.291409L 26.7291 86.870709C 24.069 81.194109 21.7044 75.517409 19.6946 69.722609L 47.8916 55.471909C 46.2956 50.504909 44.9951 45.537809 43.931 40.511709L 12.3645 41.990009C 11.2414 35.840309 10.4729 29.749809 10 23.600109L 40.9754 17.095709C 40.8571 14.730509 40.8571 12.365309 40.8571 10.000109C 66.5434 10.000009 92.2297 10.004109 117.916 10.004109Z"></path></g></g></g><g id="g-root-4.cu_sy_qqawu71ethwr3-stroke" data-item-order="999870372" data-item-id="4.cu_sy_qqawu71ethwr3" data-item-class="Part Indexed Fill Stroke" data-item-index="4" data-renderer-id="0" transform="translate(234.0001220703125, 66.507080078125)"><g id="4.cu_sy_qqawu71ethwr3-stroke" fill="none" stroke-linecap="round" stroke-linejoin="round" stroke-miterlimit="4" stroke="#ce9e07" stroke-width="2"><g><path d="M 64.4581 20.9393C 66.4679 22.8906 68.3595 24.9602 70.2512 27.0298L 96.8522 10C 100.7536 14.7305 104.5369 19.6384 108.0246 24.7828L 84.4975 45.8336C 85.9162 48.0215 87.2167 50.2093 88.5172 52.4563C 89.8177 54.7033 91 56.9503 92.1822 59.2564L 122.2709 49.6771C 124.931 55.3537 127.2955 61.0304 129.3054 66.8252L 101.1083 81.0759C 102.7044 86.0429 104.0049 91.0099 105.0689 96.0361L 136.6354 94.5578C 137.7586 100.7075 138.527 106.798 138.9999 112.9477L 108.0246 119.4521C 108.1428 121.8169 108.1428 124.1817 108.1428 126.5465L 108.1428 126.5479C 82.4561 126.5479 56.7706 126.4929 31.084 126.4929C 31.084 114.2758 28.1008 101.9369 21.6506 90.5721L 21.6103 90.5315C 18.3852 84.8085 14.4345 79.7755 10 75.3108C 28.0774 57.1101 46.3218 39.0811 64.4581 20.9393Z"></path></g></g></g><g id="g-root-3.cu_sy_zlxx331ethvye-stroke" data-item-order="999870374" data-item-id="3.cu_sy_zlxx331ethvye" data-item-class="Part Indexed Fill Stroke" data-item-index="3" data-renderer-id="0" transform="translate(3.236541748046875, 65.26513671875)"><g id="3.cu_sy_zlxx331ethvye-stroke" fill="none" stroke-linecap="round" stroke-linejoin="round" stroke-miterlimit="4" stroke="#ce9e07" stroke-width="2"><g><path d="M 84.3054 22.2402C 82.6503 23.8959 80.9951 25.6107 79.399 27.3255L 52.9163 10C 48.8966 14.7305 45.0542 19.5793 41.5665 24.6054L 64.9754 45.9519C 62.1379 50.2684 59.537 54.7033 57.2315 59.3155L 27.202 49.4406C 24.5419 54.999 22.1773 60.7347 20.0493 66.5296L 48.1281 81.0167C 46.532 85.9247 45.1724 90.8917 44.0493 95.9178L 12.5419 94.1439C 11.4187 100.2344 10.532 106.325 10 112.4746L 40.9163 119.2156C 40.7389 121.9948 40.6798 124.7739 40.6798 127.6123C 66.346 127.6123 92.0058 127.7346 117.6726 127.7346C 117.6726 108.9699 125.1326 90.6869 138.7232 77.1363L 138.7635 77.1765L 138.7635 77.0961L 138.7232 77.1363C 120.4214 58.9173 102.5875 40.5278 84.3054 22.2402Z"></path></g></g></g><g id="g-root-2.cu_sy_zlxx331ethvyd-stroke" data-item-order="999870376" data-item-id="2.cu_sy_zlxx331ethvyd" data-item-class="Part Indexed Fill Stroke" data-item-index="2" data-renderer-id="0" transform="translate(182.92877197265625, 3.253662109375)"><g id="2.cu_sy_zlxx331ethvyd-stroke" fill="none" stroke-linecap="round" stroke-linejoin="round" stroke-miterlimit="4" stroke="#ce9e07" stroke-width="2"><g><path d="M 60.6694 138.7057C 47.1189 125.1152 28.8359 117.6552 10.0712 117.6552C 10.0712 91.9993 10 66.3454 10 40.6892C 12.8374 40.6892 15.6158 40.7483 18.3941 40.9257L 25.133 10C 31.2808 10.5322 37.3695 11.4192 43.4581 12.5426L 41.6847 44.0597C 46.7094 45.1831 51.6749 46.5432 56.5813 48.1397L 71.064 20.0523C 76.8571 22.1811 82.5911 24.5463 88.1478 27.2072L 78.2759 57.2459C 82.8867 59.5521 87.3202 62.1538 91.6355 64.9922L 112.9754 41.5761C 118 45.0649 122.8473 48.9084 127.5764 52.9294L 110.2562 79.4202C 111.9705 81.0168 113.6848 82.6724 115.3399 84.3281L 60.6694 138.7057Z"></path></g></g></g><g id="g-root-1.cu_sy_zlxx331ethvyc-stroke" data-item-order="999870378" data-item-id="1.cu_sy_zlxx331ethvyc" data-item-class="Part Indexed Indexed_1 Fill Stroke" data-item-index="1" data-renderer-id="0" transform="translate(66.54672241210938, 3)"><g id="1.cu_sy_zlxx331ethvyc-stroke" fill="none" stroke-linecap="round" stroke-linejoin="round" stroke-miterlimit="4" stroke="#ce9e07" stroke-width="2"><g><path d="M 126.4533 117.916C 114.2362 117.916 101.8972 120.8992 90.5324 127.3494L 90.4918 127.3897C 84.7688 130.6148 79.7358 134.5655 75.2711 139C 20.936 84.5646 20.936 84.5646 20.936 84.5646C 22.8867 82.5542 24.9557 80.662 27.0247 78.7698L 10 52.1606C 14.7291 48.258 19.6355 44.4736 24.7783 40.9848L 45.8227 64.5191C 48.0099 63.0999 50.1971 61.7991 52.4434 60.4982C 54.6897 59.1973 56.936 58.0147 59.2414 56.832L 49.665 26.7342C 55.3399 24.0733 61.0148 21.708 66.8079 19.6975L 81.0542 47.9032C 86.0197 46.3066 90.9853 45.0058 96.0099 43.9414L 94.5321 12.3653C 100.6798 11.2418 106.7685 10.4731 112.9163 10L 119.4188 40.9848C 121.7833 40.8666 124.1479 40.8666 126.5124 40.8666C 126.5124 66.5502 126.4533 92.2325 126.4533 117.916Z"></path></g></g></g><g id="g-root-home_4o7a2n1et9gr1-stroke" data-item-order="1000000000" data-item-id="home_4o7a2n1et9gr1" data-item-class="Icon Stroke Indexed Indexed_1 InsideFill InsideColorFill" data-item-index="1" data-renderer-id="0" transform="translate(123, 63)"><g id="home_4o7a2n1et9gr1-stroke" fill="none" stroke-linecap="round" stroke-linejoin="round" stroke-miterlimit="4" stroke="#17b0e3" stroke-width="2"><g><path d="M 15.25 28.320999L 15.25 43.75C 15.25 44.578426 15.921573 45.25 16.75 45.25L 36.25 45.25C 37.078426 45.25 37.75 44.578426 37.75 43.75L 37.75 28.320999M 10.75 32.5L 26.5 17.875L 42.25 32.5M 24.25 35.5L 28.75 35.5C 29.578428 35.5 30.25 36.171574 30.25 37L 30.25 45.25L 30.25 45.25L 22.75 45.25L 22.75 45.25L 22.75 37C 22.75 36.171574 23.421572 35.5 24.25 35.5ZM 36.550003 21.678999C 36.516243 20.466358 35.541145 19.491259 34.328499 19.4575M 40.900002 21.7645C 40.798725 18.129057 37.875443 15.205771 34.239998 15.1045M 40.900002 21.7645C 40.798725 18.129057 37.875443 15.205771 34.239998 15.1045M 45.25 21.85C 45.079727 15.791571 40.208427 10.920274 34.150002 10.75M 45.25 21.85C 45.079727 15.791571 40.208427 10.920274 34.150002 10.75"></path></g></g></g><g id="g-root-chip_1ly1bjz1et9ix7-stroke" data-item-order="1000000000" data-item-id="chip_1ly1bjz1et9ix7" data-item-class="Icon Stroke Indexed InsideFill InsideColorFill" data-item-index="2" data-renderer-id="0" transform="translate(207, 63)"><g id="chip_1ly1bjz1et9ix7-stroke" fill="none" stroke-linecap="round" stroke-linejoin="round" stroke-miterlimit="4" stroke="#3bc482" stroke-width="2"><g><path d="M 23.7085 16.579C 25.161127 16.089195 26.010798 14.583023 25.678745 13.086435C 25.346693 11.589848 23.939753 10.584355 22.416283 10.754868C 20.892813 10.925379 19.742975 12.217034 19.75 13.75C 19.754065 14.020776 19.794939 14.289742 19.8715 14.5495C 19.705 14.5345 19.5445 14.5 19.375 14.5C 17.232437 14.48954 15.271848 15.702943 14.325418 17.62517C 13.378987 19.547396 13.612757 21.841215 14.9275 23.533001C 12.579105 23.694111 10.756458 25.646086 10.756458 28C 10.756458 30.353914 12.579105 32.305889 14.9275 32.466999C 13.612757 34.158783 13.378987 36.452602 14.325418 38.374832C 15.271848 40.297058 17.232437 41.51046 19.375 41.5C 19.5445 41.5 19.705 41.4655 19.8715 41.4505C 19.425758 43.027332 20.327715 44.670101 21.897406 45.140369C 23.467094 45.610634 25.123728 44.734394 25.618404 43.172226C 26.113081 41.610054 25.26277 39.939968 23.7085 39.421001M 32.2915 16.579C 30.838873 16.089195 29.989202 14.583023 30.321255 13.086435C 30.653307 11.589848 32.060249 10.584355 33.583717 10.754868C 35.107185 10.925379 36.257027 12.217034 36.25 13.75C 36.245934 14.020776 36.205059 14.289742 36.128502 14.5495C 36.295002 14.5345 36.455498 14.5 36.625 14.5C 38.767563 14.48954 40.728153 15.702943 41.674583 17.62517C 42.62101 19.547396 42.387245 21.841215 41.072502 23.533001C 43.420895 23.694111 45.243542 25.646086 45.243542 28C 45.243542 30.353914 43.420895 32.305889 41.072502 32.466999C 42.387245 34.158783 42.62101 36.452602 41.674583 38.374832C 40.728153 40.297058 38.767563 41.51046 36.625 41.5C 36.455498 41.5 36.295002 41.4655 36.128502 41.4505C 36.574242 43.027332 35.672287 44.670101 34.102596 45.140369C 32.532906 45.610634 30.876272 44.734394 30.381596 43.172226C 29.886919 41.610054 30.73723 39.939968 32.2915 39.421001M 25.75 13.6C 27.142305 12.796152 28.857697 12.796152 30.25 13.6M 30.25 42.400002C 28.857697 43.20385 27.142305 43.20385 25.75 42.400002M 23.5 22L 32.5 22C 32.5 22 34 22 34 23.5L 34 32.5C 34 32.5 34 34 32.5 34L 23.5 34C 23.5 34 22 34 22 32.5L 22 23.5C 22 23.5 22 22 23.5 22M 25 19L 25 22M 31 19L 31 22M 19 31L 22 31M 19 25L 22 25M 31 37L 31 34M 25 37L 25 34M 37 25L 34 25M 37 31L 34 31"></path></g></g></g><g id="g-root-1_8dry71et9hja-stroke" data-item-order="1000000000" data-item-id="1_8dry71et9hja" data-item-class="Icon Stroke Indexed InsideFill InsideColorFill" data-item-index="3" data-renderer-id="0" transform="translate(63, 123)"><g id="1_8dry71et9hja-stroke" fill="none" stroke-linecap="round" stroke-linejoin="round" stroke-miterlimit="4" stroke="#93c131" stroke-width="2"><g><path d="M 24.641499 38.195503L 16.796501 32.5555M 20.569 28.259501L 27.0175 33.040001M 11.2315 27.826C 11.231501 30.409864 13.326136 32.504501 15.91 32.504501C 18.493864 32.504501 20.588501 30.409864 20.588501 27.826C 20.588501 25.242136 18.493864 23.147501 15.91 23.147501C 13.326136 23.147501 11.231501 25.242136 11.231501 27.826M 20.195499 25.949501L 27.1975 19.130501M 25.048 14.2135L 15.628 23.1565M 24.91 15.4555C 24.909609 17.71821 26.74379 19.552708 29.0065 19.552708C 31.269209 19.552708 33.10339 17.71821 33.103001 15.4555C 33.10339 13.192789 31.269209 11.358293 29.0065 11.358293C 26.74379 11.358293 24.909609 13.192789 24.91 15.4555M 32.799999 17.0035L 36.511002 20.799999C 37.284115 21.589621 37.301277 22.847076 36.550003 23.657501L 36.550003 23.657499C 36.164181 24.072927 35.62495 24.312063 35.058037 24.319149C 34.491127 24.326235 33.946087 24.100653 33.550003 23.695002L 29.469999 19.526501M 11.623 44.642498L 44.623001 44.642498M 24.641499 41.003502L 24.641499 36.920502C 24.685606 34.540901 26.627241 32.634918 29.00725 32.634918C 31.38726 32.634918 33.328896 34.540901 33.373001 36.920502L 33.373001 40.940502M 15.16 27.577C 15.16 27.991215 15.495787 28.327 15.91 28.327C 16.324213 28.327 16.66 27.991215 16.66 27.577C 16.66 27.162786 16.324213 26.827 15.91 26.827C 15.495787 26.827 15.16 27.162786 15.16 27.577M 28.2565 36.887497C 28.2565 37.301716 28.592285 37.637497 29.0065 37.637497C 29.420713 37.637497 29.7565 37.301716 29.7565 36.887497C 29.7565 36.473286 29.420713 36.137497 29.0065 36.137497C 28.592285 36.137497 28.2565 36.473286 28.2565 36.887497M 23.768499 41.003502L 34.174 41.003502C 35.002426 41.003502 35.674 41.675072 35.674 42.503502L 35.674 44.642498L 35.674 44.642498L 22.268499 44.642498L 22.268499 44.642498L 22.268499 42.503502C 22.268499 41.675072 22.940073 41.003502 23.768499 41.003502ZM 36.099998 20.363501C 36.3843 20.007441 36.788437 19.766983 37.237 19.687C 39.099014 19.346226 41.016228 19.849552 42.47073 21.061012C 43.925236 22.27247 44.766953 24.067062 44.768501 25.960001C 44.768501 26.995533 43.929035 27.835001 42.893501 27.835001C 41.857964 27.835001 41.018501 26.995533 41.018501 25.960001C 41.017418 25.177616 40.667995 24.436344 40.06517 23.937614C 39.462341 23.438885 38.668739 23.234501 37.900002 23.380001C 37.613728 23.430599 37.319649 23.414688 37.040501 23.333502M 35.682999 24.139C 35.746315 24.492697 35.706745 24.857134 35.569 25.189001C 35.261162 25.908453 35.289959 26.727671 35.64756 27.423731C 36.005161 28.119791 36.654358 28.620277 37.418503 28.789C 38.430008 29.011847 39.069347 30.012491 38.846497 31.024C 38.623653 32.035511 37.623009 32.674847 36.6115 32.452C 34.764919 32.0425 33.195259 30.834705 32.326286 29.154696C 31.457315 27.474686 31.378641 25.495691 32.1115 23.751999C 32.215866 23.499063 32.374619 23.272198 32.5765 23.087502"></path></g></g></g><g id="g-root-2_1ly1bjz1et9ix5-stroke" data-item-order="1000000000" data-item-id="2_1ly1bjz1et9ix5" data-item-class="Icon Stroke Indexed InsideFill InsideColorFill" data-item-index="4" data-renderer-id="0" transform="translate(267, 124)"><g id="2_1ly1bjz1et9ix5-stroke" fill="none" stroke-linecap="round" stroke-linejoin="round" stroke-miterlimit="4" stroke="#e3cd09" stroke-width="2"><g><path d="M 15.25 30.380501L 25.75 30.380501L 25.75 40.880501L 15.25 40.880501ZM 40.75 40.880501L 30.25 40.880501L 30.25 30.380501L 40.75 30.380501ZM 15.25 15.3805L 25.75 15.3805L 25.75 25.880501L 15.25 25.880501ZM 40.75 25.880501L 30.25 25.880501L 30.25 15.3805L 40.75 15.3805ZM 28.000286 31.152435L 35.424908 38.577057L 28.000284 46.001678L 20.575663 38.577057ZM 24.977436 28.130787L 17.552814 35.555405L 10.128195 28.130787L 17.552816 20.706165ZM 28.000341 25.107937L 20.57572 17.683317L 28.000341 10.258695L 35.424965 17.683315ZM 31.021936 28.130842L 38.44656 20.706219L 45.871178 28.13084L 38.44656 35.555466Z"></path></g></g></g><g id="g-root-real_909xof1etawwa-stroke" data-item-order="1000000000" data-item-id="real_909xof1etawwa" data-item-class="Icon Stroke Indexed InsideFill InsideColorFill" data-item-index="5" data-renderer-id="0" transform="translate(63, 207)"><g id="real_909xof1etawwa-stroke" fill="none" stroke-linecap="round" stroke-linejoin="round" stroke-miterlimit="4" stroke="#dd8433" stroke-width="2"><g><path d="M 44.714287 26.714285L 11.285714 26.714285L 11.285714 39.571426C 11.285714 40.991589 12.436982 42.142857 13.857142 42.142857L 21.571428 42.142857C 22.353842 42.139248 23.092049 41.77961 23.577143 41.165714L 26.945715 36.974285C 27.189739 36.670124 27.558619 36.493145 27.948572 36.493145C 28.338524 36.493145 28.707403 36.670124 28.951427 36.974285L 32.371429 41.165714C 32.856522 41.77961 33.594727 42.139248 34.37714 42.142857L 42.091427 42.142857C 43.511589 42.142857 44.662857 40.991589 44.662857 39.571426ZM 44.714287 26.714285L 37.745712 15.142857C 37.282692 14.361916 36.442173 13.883016 35.534286 13.882857L 20.465715 13.882857C 19.557827 13.883016 18.717308 14.361916 18.254286 15.142857L 11.285714 26.714285"></path></g></g></g><g id="g-root-line_1qdutof1et9i4v-stroke" data-item-order="1000000000" data-item-id="line_1qdutof1et9i4v" data-item-class="Icon Stroke Indexed InsideFill InsideColorFill" data-item-index="6" data-renderer-id="0" transform="translate(267, 207)"><g id="line_1qdutof1et9i4v-stroke" fill="none" stroke-linecap="round" stroke-linejoin="round" stroke-miterlimit="4" stroke="#ce9e07" stroke-width="2"><g><path d="M 12.256 15.25L 43.756001 15.25C 43.756001 15.25 45.256001 15.25 45.256001 16.75L 45.256001 39.25C 45.256001 39.25 45.256001 40.75 43.756001 40.75L 12.256 40.75C 12.256 40.75 10.756 40.75 10.756 39.25L 10.756 16.75C 10.756 16.75 10.756 15.25 12.256 15.25M 16.75 33.25L 20.606501 26.8225C 20.741955 26.596237 20.986288 26.457737 21.25 26.457737C 21.513712 26.457737 21.758045 26.596237 21.893499 26.8225L 25.213001 32.349998C 25.337925 32.558418 25.556082 32.693398 25.798347 32.712173C 26.040611 32.730946 26.276958 32.631184 26.432499 32.4445L 28.93 29.4445C 29.072496 29.273624 29.283506 29.174837 29.506001 29.174837C 29.728495 29.174837 29.939503 29.273624 30.081999 29.4445L 32.564499 32.4235C 32.721825 32.612133 32.961548 32.711777 33.20623 32.690239C 33.450916 32.668701 33.669548 32.528717 33.7915 32.315498L 39.25 22.75"></path></g></g></g><g id="g-root-glob_1utobsv1et9i4g-stroke" data-item-order="1000000000" data-item-id="glob_1utobsv1et9i4g" data-item-class="Icon Stroke Indexed InsideFill InsideColorFill" data-item-index="7" data-renderer-id="0" transform="translate(123, 267)"><g id="glob_1utobsv1et9i4g-stroke" fill="none" stroke-linecap="round" stroke-linejoin="round" stroke-miterlimit="4" stroke="#da5da8" stroke-width="2"><g><path d="M 37.779999 26.5C 37.76347 31.889626 33.389652 36.250027 28.000002 36.25C 22.575886 36.159611 18.238087 31.714706 18.280001 26.289999C 18.278913 21.10471 22.425795 16.871155 27.610001 16.764999L 28 16.764999C 30.593327 16.740885 33.088093 17.757332 34.926155 19.586935C 36.764214 21.416538 37.792156 23.906591 37.779999 26.5ZM 27.610001 16.764999C 22.525002 22.27 22.525002 29.455 27.610001 36.264999M 28.450001 16.764999C 33.549999 22.27 33.549999 29.455 28.450001 36.264999M 18.280001 26.5L 37.779999 26.5M 12.25 15.655L 12.25 27.115C 12.338817 34.87035 17.264565 41.743626 24.58 44.32L 26.26 44.935001C 27.382011 45.354839 28.617989 45.354839 29.74 44.935001L 31.42 44.32C 38.735435 41.743626 43.661186 34.87035 43.75 27.115002L 43.75 15.655C 43.745541 14.739398 43.197277 13.914053 42.355 13.555C 37.809765 11.656084 32.925716 10.70173 27.999998 10.75C 23.07428 10.70173 18.190233 11.656084 13.645 13.555C 12.802725 13.914053 12.254459 14.739398 12.25 15.655Z"></path></g></g></g><g id="g-root-tran_1ly1bjz1et9ix6-stroke" data-item-order="1000000000" data-item-id="tran_1ly1bjz1et9ix6" data-item-class="Icon Stroke Indexed InsideFill InsideColorFill" data-item-index="8" data-renderer-id="0" transform="translate(207, 267)"><g id="tran_1ly1bjz1et9ix6-stroke" fill="none" stroke-linecap="round" stroke-linejoin="round" stroke-miterlimit="4" stroke="#b65edf" stroke-width="2"><g><path d="M 40.75 31.609001C 43.105339 30.520241 44.581764 28.129015 44.499996 25.5355C 44.471603 23.616314 43.663738 21.791248 42.262142 20.479908C 40.86055 19.168568 38.985828 18.483786 37.069 18.583C 35.35989 15.143121 31.841 12.976844 28 13C 22.765785 12.929777 18.380125 16.943558 17.987499 22.163498C 16.424858 21.819933 14.790498 22.194935 13.533941 23.185364C 12.277384 24.175793 11.530971 25.677336 11.5 27.277C 11.375261 29.615057 12.962808 31.699186 15.25 32.200001M 19 38.5L 23.5 43L 28 38.5M 23.5 43L 23.5 29.5M 28 34L 32.5 29.5L 37 34M 32.5 29.5L 32.5 43"></path></g></g></g></g></g></svg>