<?xml version="1.0" encoding="utf-8" standalone="yes"?>
<!DOCTYPE svg PUBLIC "-//W3C//DTD SVG 1.1//EN" "http://www.w3.org/Graphics/SVG/1.1/DTD/svg11.dtd">
<svg width="762" height="413" viewBox="0 0 762 413" style="fill:none;stroke:none;fill-rule:evenodd;clip-rule:evenodd;stroke-linecap:round;stroke-linejoin:round;stroke-miterlimit:1.5;" version="1.1" xmlns="http://www.w3.org/2000/svg" xmlns:xlink="http://www.w3.org/1999/xlink"><style id="fontImports"></style><g id="items" style="isolation: isolate"><g id="blend" style="mix-blend-mode:normal"><g id="g-root-4.cu_sy_mb308t1d5n4zt-fill" data-item-order="999880817" data-item-id="4.cu_sy_mb308t1d5n4zt" data-item-class="Part Indexed Fill Stroke" data-item-index="4" data-renderer-id="0" transform="translate(356.001220703125, 254.51171875)"><g id="4.cu_sy_mb308t1d5n4zt-fill" stroke="none" fill="#fbd663"><g><path d="M 10 61.349182L 27.645996 73.358398L 27.654022 81.74649L 10.032013 93.790497C 11.071015 96.960479 11.373993 97.886291 11.908997 99.520996C 12.188019 100.371277 12.528992 101.413299 13.069 103.062591L 34.437012 102.453399C 35.169007 103.453888 35.735016 104.228393 36.251007 104.933502C 37.223999 106.263 38.015991 107.345978 39.395996 109.23349L 32.251007 129.289978C 34.312012 130.776977 35.265015 131.464996 36.217011 132.151977C 37.169007 132.838989 38.121002 133.526001 40.182007 135.013977L 57.109192 122.018982C 59.662903 122.84201 60.970612 123.264007 62.897492 123.88501L 65.124115 124.601989L 71.184601 145.009979L 80.980499 145L 87.000794 124.580993C 89.545716 123.753998 90.852509 123.329986 92.769409 122.708008C 93.421509 122.497009 94.144409 122.261993 95.01059 121.980987L 111.962891 134.944C 114.021515 133.451996 114.97229 132.763 115.923004 132.072998C 116.87381 131.384002 117.824616 130.695007 119.883118 129.203003L 112.6987 109.161285C 113.42099 108.169708 113.981903 107.399811 114.492005 106.699585C 115.469391 105.358093 116.260712 104.272003 117.644409 102.371399L 139.013214 102.938507C 140.081207 99.656982 140.366913 98.778686 140.93512 97.032196C 141.201813 96.212402 141.530701 95.201294 142.032013 93.6604L 124.386505 81.651184L 124.378205 73.263092L 142 61.219085C 140.928406 57.948089 140.63971 57.066498 140.071015 55.329986C 139.801911 54.508301 139.470123 53.495208 138.963013 51.946991L 117.595307 52.556183C 116.869324 51.563598 116.306 50.793487 115.793396 50.092895C 114.815125 48.755707 114.022003 47.671509 112.636322 45.776092L 119.78122 25.720001C 117.719727 24.2323 116.767609 23.544983 115.815399 22.857696C 114.863312 22.17041 113.911225 21.483093 111.849701 19.995392L 94.922913 32.991089C 92.397614 32.176788 91.090698 31.755493 89.198609 31.145691L 86.90802 30.407287L 80.847504 10L 71.051605 10.009582L 65.031403 30.428894C 61.620514 31.536194 60.433808 31.921081 57.021515 33.028381L 40.069 20.066101C 38.011017 21.557892 37.059998 22.247101 36.109009 22.936187C 35.15802 23.625396 34.208008 24.314605 32.149018 25.806305L 39.333008 45.848297C 38.60202 46.8526 38.036011 47.629486 37.52002 48.336883C 36.552002 49.666076 35.762024 50.750305 34.388001 52.638092L 13.019013 52.071075C 11.987 55.242279 11.684998 56.169098 11.153015 57.804077C 10.877014 58.65509 10.537018 59.697998 10 61.349182ZM 112.016205 77.469604C 112.035797 97.351501 95.933716 113.484985 76.051697 113.505005C 56.1698 113.524994 40.036011 97.422394 40.016022 77.540497C 39.997009 57.6586 56.098908 41.524597 75.980805 41.505096C 95.862702 41.485504 111.996704 57.587585 112.016205 77.469604Z"></path></g></g></g><g id="g-root-3.cu_sy_mb308t1d5n4zs-fill" data-item-order="999880819" data-item-id="3.cu_sy_mb308t1d5n4zs" data-item-class="Part Indexed Fill Stroke" data-item-index="3" data-renderer-id="0" transform="translate(204, 146.999267578125)"><g id="3.cu_sy_mb308t1d5n4zs-fill" stroke="none" fill="#ceb052"><g><path d="M 10.545303 110.20308C 10.666306 111.500382 10.787292 112.797806 11.0905 116.044388L 11.089294 116.046891L 30.564194 118.151383C 31.801697 122.121598 32.152695 123.246598 33.026901 126.048691L 33.833298 128.633683L 19.013794 141.455399L 20.866898 144.756302C 22.132095 147.009995 22.398193 147.483994 24.757095 151.684189L 43.403503 145.677994L 50.650513 153.922287L 42.322998 171.668503C 44.001404 172.918686 45.032593 173.686783 45.832306 174.282395C 47.523499 175.542008 48.178406 176.029801 51.727295 178.673905L 66.320892 165.594895C 68.696716 166.686508 70.00119 167.285996 71.305695 167.885514C 72.610199 168.485001 73.914795 169.084488 76.290497 170.17601L 75.893707 189.779404C 79.073181 190.493912 80.343292 190.77919 81.613495 191.064804C 82.883392 191.350296 84.153381 191.636002 87.331787 192.350998L 95.348602 174.461197C 97.991699 174.491501 99.42981 174.508103 100.88089 174.524796C 102.300903 174.541184 103.733215 174.557694 106.318787 174.587296L 113.923004 192.656998C 118.769989 191.684891 119.200989 191.598313 121.916016 191.053208C 122.779999 190.879685 123.875 190.659806 125.416992 190.350205L 125.471985 170.743088C 127.872009 169.706498 129.190002 169.137192 130.507996 168.568009C 131.825989 167.998795 133.143982 167.429612 135.544983 166.39299L 149.833984 179.804093C 152.492004 177.91829 153.554016 177.164902 154.61499 176.411301C 155.677002 175.6577 156.739014 174.904007 159.397003 173.017411L 151.47998 155.083786C 153.252014 153.159195 154.223999 152.102585 155.197021 151.046006C 156.169983 149.989395 157.141998 148.932785 158.914001 147.008194L 177.416992 153.442704C 179.078979 150.636002 179.742981 149.515396 180.406982 148.393814C 181.070007 147.273514 181.734009 146.152298 183.39502 143.348709L 168.875 130.188706C 169.710999 127.709488 170.171021 126.348191 170.630005 124.986801C 171.088989 123.625504 171.548004 122.264115 172.38501 119.784989L 191.903015 118.130081C 192.281006 114.891007 192.432007 113.596787 192.583008 112.302597C 192.734009 111.008316 192.88501 109.714096 193.263 106.474991L 174.651001 100.363907C 174.406982 97.758591 174.273987 96.327988 174.140015 94.897293C 174.007019 93.466599 173.872986 92.035996 173.630005 89.430985L 190.789001 79.972C 189.819 76.861008 189.431 75.616989 189.042999 74.374008C 188.653992 73.12999 188.266998 71.886002 187.294983 68.771988L 167.809021 70.766007C 166.526978 68.482987 165.822998 67.229996 165.119019 65.975998C 164.416016 64.724991 163.713013 63.472977 162.434021 61.194992L 174.265991 45.568985L 171.858002 42.830002C 170.072021 40.798004 169.757996 40.440995 166.52301 36.759003L 149.531006 46.515C 148.380005 45.656998 147.513 45.011002 146.776001 44.460999C 144.825989 43.009003 143.773987 42.224991 140.731018 39.957993L 145.190002 20.864991L 134.536987 15.968994L 122.979004 31.800003C 120.428009 31.225998 119.027008 30.910996 117.627014 30.595993C 116.226013 30.280991 114.825012 29.966004 112.273987 29.39299L 108.589691 10.134995L 96.868408 10L 92.744507 29.168991C 90.181 29.683991 88.77359 29.966004 87.366089 30.248993C 85.95871 30.531998 84.551208 30.813996 81.987701 31.328995L 70.7966 15.235993L 60.033508 19.884995L 64.05249 39.074997C 61.920105 40.587998 60.749084 41.418991 59.578094 42.250992C 58.407104 43.082001 57.236084 43.912995 55.103699 45.427018L 38.3414 35.281998C 36.133499 37.679993 35.251297 38.638001 34.369202 39.595993C 33.487 40.554001 32.604904 41.513001 30.397003 43.910004L 41.866302 59.805008C 40.531189 62.058976 39.798996 63.294998 39.065903 64.531998C 38.334702 65.766983 37.602798 67.001999 36.271393 69.250016L 16.836395 66.805985C 15.559006 70.591996 15.221603 71.591996 14.672394 73.219986C 14.325104 74.249008 13.893204 75.529007 13.085693 77.922989L 30.021393 87.774979C 29.718201 90.374008 29.551605 91.80098 29.384995 93.228104C 29.218506 94.655289 29.051895 96.082596 28.748703 98.681595L 10 104.361801C 10.303207 107.608414 10.424194 108.905808 10.545303 110.20308ZM 137.630981 101.328904C 137.630981 121.2108 121.511993 137.328904 101.630493 137.328904C 81.748596 137.328904 65.630493 121.2108 65.630493 101.328904C 65.630493 81.447007 81.748596 65.328995 101.630493 65.328995C 121.511993 65.328995 137.630981 81.447007 137.630981 101.328904Z"></path></g></g></g><g id="g-root-2.cu_sy_qqa1a51d5n7db-fill" data-item-order="999880821" data-item-id="2.cu_sy_qqa1a51d5n7db" data-item-class="Part Indexed Fill Stroke" data-item-index="2" data-renderer-id="0" transform="translate(357.0001220703125, 76.146484375)"><g id="2.cu_sy_qqa1a51d5n7db-fill" stroke="none" fill="#a18a41"><g><path d="M 10.004699 89.680802C 10.006988 87.6353 10.008087 86.665909 10.012908 82.720704L 10.013488 82.72461L 32.105499 76.772904C 32.704711 74.739304 33.089386 73.433899 33.474182 72.128601C 33.858886 70.823197 34.243591 69.517899 34.842804 67.484299L 19.517303 50.4758C 20.528503 48.905503 21.178588 47.896103 21.700286 47.086106C 22.79721 45.383103 23.32669 44.560898 25.45169 41.259995L 47.255706 48.20781L 49.011383 46.689698C 50.943603 45.019104 52.043396 44.068207 54.576507 41.876801L 50.868286 19.278C 53.508606 18.075409 54.68341 17.540497 55.861297 17.004303C 57.034301 16.4702 58.210296 15.9348 60.839813 14.737198L 75.433105 32.379807C 77.533386 32.080796 78.880584 31.88881 80.229003 31.696701C 81.573181 31.505097 82.918609 31.313401 85.012603 31.015396L 94.100006 10C 96.964294 10.416809 98.242401 10.602509 99.519897 10.788208C 100.798309 10.973999 102.076202 11.159699 104.942688 11.576798L 107.691711 34.312912C 110.207 35.467408 111.54599 36.081711 113.244995 36.861298C 114.14801 37.275406 115.152008 37.7361 116.488006 38.349198L 135.484985 25.591004C 139.005981 28.651902 139.385986 28.9823 141.680999 30.979004C 142.236999 31.462403 142.904998 32.043305 143.756988 32.784302L 133.789001 53.395508L 139.009979 61.550599L 161.884979 61.099411C 162.204986 62.195099 162.454986 63.051712 162.662994 63.763413C 163.509979 66.664811 163.654022 67.157608 164.959014 71.625504L 145.438995 83.566208L 145.428009 93.251511L 164.918975 105.250809C 164.100006 108.029602 163.735015 109.269303 163.369964 110.509003C 163.004974 111.749009 162.639007 112.988007 161.819976 115.768006L 138.945983 115.248001C 137.798004 117.029999 137.061981 118.174012 136.324981 119.319001C 135.588989 120.463013 134.851989 121.606995 133.70401 123.389008L 143.623016 144.029023L 135.333984 151.197998L 116.367004 138.382996C 114.161987 139.386994 112.859985 139.980011 111.428009 140.632019C 110.355987 141.121003 109.211395 141.641999 107.560485 142.394013L 104.757293 165.121003L 93.911407 166.665009L 84.874694 145.623993C 83.033996 145.356018 81.772003 145.171997 80.580291 144.998993C 79.058105 144.777008 77.650787 144.572998 75.298889 144.231018L 60.663879 161.830017C 58.031494 160.62201 56.857482 160.083008 55.68338 159.544007C 54.509399 159.005005 53.335296 158.467011 50.70288 157.259003L 54.464904 134.67099L 47.158996 128.317017L 25.338501 135.200013L 23.954803 133.037995C 22.224395 130.334992 21.993194 129.972992 19.426788 125.966004L 34.793792 109.003006C 33.618499 104.981308 33.274902 103.804306 32.121307 99.852707L 32.078399 99.705704L 10 93.686798L 10.004699 89.680802ZM 123.480011 88.334C 123.480011 68.452011 107.361511 52.334 87.479583 52.334C 67.597595 52.334 51.479583 68.451996 51.479583 88.334C 51.479583 108.215897 67.597595 124.334015 87.479583 124.334015C 107.361511 124.334015 123.480011 108.215897 123.480011 88.334Z"></path></g></g></g><g id="g-root-1.cu_sy_qqa1a51d5n7da-fill" data-item-order="999880823" data-item-id="1.cu_sy_qqa1a51d5n7da" data-item-class="Part Indexed Indexed_1 Fill Stroke" data-item-index="1" data-renderer-id="0" transform="translate(254.00009155273438, 2.5)"><g id="1.cu_sy_qqa1a51d5n7da-fill" stroke="none" fill="#746330"><g><path d="M 10 93.720596L 27.633697 81.694L 27.633697 73.306L 10 61.279297C 11.0354 58.108299 11.337707 57.182098 11.87149 55.546898C 12.149108 54.696404 12.489288 53.654099 13.027893 52.004204L 34.396087 52.5923C 35.127014 51.591103 35.69281 50.816101 36.207885 50.110497C 37.179199 48.779999 37.970489 47.696198 39.348602 45.807404L 32.183898 25.758003C 34.243896 24.268997 35.195404 23.580002 36.146789 22.891998C 37.098205 22.204002 38.049713 21.515999 40.10971 20.026001L 57.049285 33.004997C 59.602203 32.179001 60.909515 31.755997 62.835784 31.133003L 65.061706 30.413002L 71.102111 10L 80.89801 10L 86.938293 30.413002C 89.4841 31.237 90.79129 31.660004 92.708801 32.279999C 93.361206 32.490997 94.084198 32.724998 94.950714 33.004997L 111.889984 20.026001C 113.949981 21.515999 114.902008 22.204002 115.852996 22.891998C 116.804992 23.580002 117.756012 24.268997 119.816009 25.758003L 112.651001 45.807404C 113.375 46.798302 113.936004 47.567596 114.446991 48.267303C 115.425994 49.607803 116.217987 50.693199 117.604003 52.5924L 138.972015 52.004204C 140.042999 55.284698 140.329986 56.162697 140.899993 57.9086C 141.167022 58.728203 141.496978 59.738998 142 61.279297L 124.365997 73.306L 124.365997 81.694L 142 93.720703C 140.932006 96.992798 140.644012 97.874603 140.076995 99.611694C 139.808013 100.433594 139.477996 101.446991 138.972015 102.995804L 117.604003 102.407593C 116.878997 103.401001 116.316009 104.1716 115.803985 104.872696C 114.826995 106.210907 114.035003 107.295807 112.651001 109.192596L 119.816009 129.241608C 117.756012 130.7314 116.804992 131.419601 115.852996 132.107895C 114.902008 132.796097 113.949981 133.484299 111.889984 134.974106L 94.950714 121.995102C 92.426208 122.811905 91.119689 123.234406 89.22821 123.8461L 86.938293 124.5867L 80.897918 145L 71.101989 145L 65.061706 124.5867C 61.649688 123.482697 60.462616 123.098999 57.049285 121.995102L 40.10971 134.974106C 38.049713 133.484299 37.098205 132.796097 36.146789 132.107895C 35.195312 131.419601 34.243896 130.7314 32.183898 129.241608L 39.34851 109.192596C 38.615997 108.188995 38.049285 107.412704 37.533111 106.705795C 36.563507 105.377594 35.772491 104.294098 34.396087 102.407593L 13.027893 102.995804C 11.992706 99.8255 11.690307 98.899002 11.156799 97.264603C 10.879089 96.413803 10.538787 95.371307 10 93.720596ZM 112.001007 77.5C 112.001007 57.618103 95.882904 41.5 76.001007 41.5C 56.11911 41.5 40.001007 57.618103 40.001007 77.5C 40.001007 97.381897 56.118988 113.5 76.001007 113.5C 95.882904 113.5 112.001007 97.381897 112.001007 77.5Z"></path></g></g></g><g id="g-root-tx_lanzarpl_1hckkxp1d5n7d8-fill" data-item-order="1000000000" data-item-id="tx_lanzarpl_1hckkxp1d5n7d8" data-item-class="Label Stroke Indexed Indexed_1" data-item-index="1" data-renderer-id="0" transform="translate(62, 46)"><g id="tx_lanzarpl_1hckkxp1d5n7d8-fill" stroke="none" fill="#ce9e07"><g><text style="font-style: normal; font-variant-caps: normal; font-weight: normal; font-stretch: normal; font-size: 20px; line-height: normal; font-family: Arial, Helvetica, sans-serif; font-size-adjust: none; font-kerning: auto; font-variant-alternates: normal; font-variant-ligatures: normal; font-variant-numeric: normal; font-variant-east-asian: normal; font-variant-position: normal; font-variant-emoji: normal; font-feature-settings: normal; font-optical-sizing: auto; font-variation-settings: normal; white-space: pre;"><tspan x="12" y="33" dominant-baseline="ideographic">Lanzar Plataforma </tspan><tspan x="88" y="57" dominant-baseline="ideographic">Educativa</tspan></text></g></g></g><g id="g-root-lear_18gxkot1d5u7t2-fill" data-item-order="1000000000" data-item-id="lear_18gxkot1d5u7t2" data-item-class="Icon Stroke Indexed Indexed_1 InsideFill InsideColorFill" data-item-index="1" data-renderer-id="0" transform="translate(296, 46.001953125)"></g><g id="g-root-netw_18gxkot1d5u7t3-fill" data-item-order="1000000000" data-item-id="netw_18gxkot1d5u7t3" data-item-class="Icon Stroke Indexed InsideFill InsideColorFill" data-item-index="2" data-renderer-id="0" transform="translate(410, 130)"></g><g id="g-root-tx_implemen_1uo13b11d5n5sb-fill" data-item-order="1000000000" data-item-id="tx_implemen_1uo13b11d5n5sb" data-item-class="Label Stroke Indexed" data-item-index="2" data-renderer-id="0" transform="translate(536, 118)"><g id="tx_implemen_1uo13b11d5n5sb-fill" stroke="none" fill="#ce9e07"><g><text style="font-style: normal; font-variant-caps: normal; font-weight: normal; font-stretch: normal; font-size: 20px; line-height: normal; font-family: Arial, Helvetica, sans-serif; font-size-adjust: none; font-kerning: auto; font-variant-alternates: normal; font-variant-ligatures: normal; font-variant-numeric: normal; font-variant-east-asian: normal; font-variant-position: normal; font-variant-emoji: normal; font-feature-settings: normal; font-optical-sizing: auto; font-variation-settings: normal; white-space: pre;"><tspan x="12" y="33" dominant-baseline="ideographic">Implementar Sistema </tspan><tspan x="12" y="57" dominant-baseline="ideographic">de Proveedores </tspan><tspan x="12" y="81" dominant-baseline="ideographic">Basado en IA</tspan></text></g></g></g><g id="g-root-tx_mejorarl_8xr2m51d5n7ka-fill" data-item-order="1000000000" data-item-id="tx_mejorarl_8xr2m51d5n7ka" data-item-class="Label Stroke Indexed" data-item-index="3" data-renderer-id="0" transform="translate(2, 202)"><g id="tx_mejorarl_8xr2m51d5n7ka-fill" stroke="none" fill="#ce9e07"><g><text style="font-style: normal; font-variant-caps: normal; font-weight: normal; font-stretch: normal; font-size: 20px; line-height: normal; font-family: Arial, Helvetica, sans-serif; font-size-adjust: none; font-kerning: auto; font-variant-alternates: normal; font-variant-ligatures: normal; font-variant-numeric: normal; font-variant-east-asian: normal; font-variant-position: normal; font-variant-emoji: normal; font-feature-settings: normal; font-optical-sizing: auto; font-variation-settings: normal; white-space: pre;"><tspan x="99" y="33" dominant-baseline="ideographic">Mejorar la </tspan><tspan x="23" y="57" dominant-baseline="ideographic">Competitividad del </tspan><tspan x="130" y="81" dominant-baseline="ideographic">Sector</tspan></text></g></g></g><g id="g-root-2_v97wu51d5u7es-fill" data-item-order="1000000000" data-item-id="2_v97wu51d5u7es" data-item-class="Icon Stroke Indexed InsideFill InsideColorFill" data-item-index="3" data-renderer-id="0" transform="translate(272, 214)"></g><g id="g-root-hand_1cwr2t91d5u70t-fill" data-item-order="1000000000" data-item-id="hand_1cwr2t91d5u70t" data-item-class="Icon Stroke Indexed InsideFill InsideColorFill" data-item-index="4" data-renderer-id="0" transform="translate(398, 298)"></g><g id="g-root-tx_fortalec_m97kzh1d5n5zd-fill" data-item-order="1000000000" data-item-id="tx_fortalec_m97kzh1d5n5zd" data-item-class="Label Stroke Indexed" data-item-index="4" data-renderer-id="0" transform="translate(512, 286)"><g id="tx_fortalec_m97kzh1d5n5zd-fill" stroke="none" fill="#ce9e07"><g><text style="font-style: normal; font-variant-caps: normal; font-weight: normal; font-stretch: normal; font-size: 20px; line-height: normal; font-family: Arial, Helvetica, sans-serif; font-size-adjust: none; font-kerning: auto; font-variant-alternates: normal; font-variant-ligatures: normal; font-variant-numeric: normal; font-variant-east-asian: normal; font-variant-position: normal; font-variant-emoji: normal; font-feature-settings: normal; font-optical-sizing: auto; font-variation-settings: normal; white-space: pre;"><tspan x="12" y="33" dominant-baseline="ideographic">Fortalecer la </tspan><tspan x="12" y="57" dominant-baseline="ideographic">Coordinación </tspan><tspan x="12" y="81" dominant-baseline="ideographic">Público-Privada</tspan></text></g></g></g><g id="g-root-4.cu_sy_mb308t1d5n4zt-stroke" data-item-order="999880817" data-item-id="4.cu_sy_mb308t1d5n4zt" data-item-class="Part Indexed Fill Stroke" data-item-index="4" data-renderer-id="0" transform="translate(356.001220703125, 254.51171875)"><g id="4.cu_sy_mb308t1d5n4zt-stroke" fill="none" stroke-linecap="butt" stroke-linejoin="miter" stroke-miterlimit="4" stroke="#fbd663" stroke-width="1"><g><path d="M 10.000092 61.349182L 27.6456 73.358398L 27.6539 81.74649L 10.032105 93.790497C 11.070618 96.960479 11.37381 97.886291 11.90921 99.520996C 12.187592 100.371277 12.5289 101.413299 13.069 103.062591L 34.436707 102.453399C 35.16861 103.453888 35.735108 104.228393 36.251007 104.933502C 37.223602 106.263 38.0159 107.345978 39.395813 109.23349L 32.250916 129.289581C 34.312409 130.777282 35.264496 131.464599 36.216706 132.151886C 37.168793 132.839203 38.120911 133.526489 40.182404 135.01419L 57.109192 122.018493C 59.662903 122.84201 60.970612 123.263489 62.897492 123.884582L 65.124115 124.602295L 71.184601 145.009582L 80.980499 144.999878L 87.000794 124.580688C 89.545716 123.754486 90.852509 123.330505 92.769409 122.708404C 93.421601 122.496795 94.144409 122.262298 95.01059 121.981201L 111.962891 134.943481C 114.021515 133.45169 114.97229 132.762481 115.923004 132.073395C 116.87381 131.384186 117.824616 130.695007 119.883118 129.203186L 112.6987 109.161285C 113.42099 108.169708 113.981903 107.399902 114.492005 106.699585C 115.469391 105.358093 116.260712 104.272003 117.644409 102.371399L 139.013214 102.938507C 140.081207 99.656982 140.366913 98.778686 140.93512 97.032196C 141.201813 96.212402 141.530701 95.201294 142.032013 93.6604L 124.386505 81.651184L 124.378205 73.263092L 142 61.219085C 140.928406 57.948089 140.63971 57.066498 140.071015 55.329986C 139.801911 54.508301 139.470123 53.495208 138.963013 51.946991L 117.595307 52.556183C 116.869324 51.563598 116.306 50.793487 115.793396 50.092895C 114.815125 48.755707 114.022003 47.671509 112.636322 45.776092L 119.78122 25.720001C 117.719727 24.2323 116.767609 23.544983 115.815399 22.857696C 114.863312 22.17041 113.911225 21.483093 111.849701 19.995392L 94.922913 32.991089C 92.397614 32.176788 91.090698 31.755493 89.198609 31.145691L 86.90802 30.407287L 80.847504 10L 71.051605 10.009582L 65.031403 30.428894C 61.620514 31.536194 60.433808 31.921081 57.021515 33.028381L 40.069214 20.066101C 38.01062 21.557892 37.059815 22.247101 36.109101 22.936187C 35.158295 23.625396 34.20752 24.314605 32.149018 25.806305L 39.333405 45.848297C 38.601807 46.8526 38.035919 47.629486 37.520416 48.336883C 36.552124 49.666076 35.762116 50.750305 34.387695 52.638092L 13.018799 52.071075C 11.986817 55.242279 11.685303 56.169098 11.153412 57.804077C 10.876618 58.65509 10.537293 59.697998 10.000092 61.349182ZM 112.016205 77.469604C 112.035797 97.351501 95.933716 113.485382 76.051697 113.505005C 56.1698 113.524597 40.035889 97.422394 40.016297 77.540497C 39.996704 57.6586 56.098908 41.524597 75.980805 41.505096C 95.862702 41.485504 111.996704 57.587585 112.016205 77.469604Z"></path></g></g></g><g id="g-root-3.cu_sy_mb308t1d5n4zs-stroke" data-item-order="999880819" data-item-id="3.cu_sy_mb308t1d5n4zs" data-item-class="Part Indexed Fill Stroke" data-item-index="3" data-renderer-id="0" transform="translate(204, 146.999267578125)"><g id="3.cu_sy_mb308t1d5n4zs-stroke" fill="none" stroke-linecap="butt" stroke-linejoin="miter" stroke-miterlimit="4" stroke="#ceb052" stroke-width="1"><g><path d="M 10.545303 110.20308C 10.666306 111.500382 10.787292 112.797806 11.0905 116.044388L 11.089294 116.046891L 30.564194 118.151383C 31.801697 122.121598 32.152695 123.246598 33.026901 126.048691L 33.833298 128.633683L 19.013794 141.455399L 20.866898 144.756302C 22.132095 147.009995 22.398193 147.483994 24.757095 151.684189L 43.403503 145.677994L 50.650513 153.922287L 42.322998 171.668503C 44.001404 172.918686 45.032593 173.686783 45.832306 174.282395C 47.523499 175.542008 48.178406 176.029801 51.727295 178.673905L 66.320892 165.594895C 68.696716 166.686508 70.00119 167.285996 71.305695 167.885514C 72.610199 168.485001 73.914795 169.084488 76.290497 170.17601L 75.893707 189.779404C 79.073181 190.493912 80.343292 190.779312 81.613495 191.064804C 82.883392 191.350296 84.153381 191.636002 87.331787 192.350998L 95.348602 174.461197C 97.991699 174.491501 99.42981 174.508103 100.88089 174.524796C 102.300903 174.541184 103.733215 174.557694 106.318787 174.587296L 113.922607 192.656998C 118.769989 191.684891 119.201202 191.598313 121.916016 191.053208C 122.779785 190.879685 123.874817 190.659806 125.416901 190.350205L 125.471802 170.743088C 127.872498 169.706498 129.190399 169.137192 130.508392 168.568009C 131.826294 167.998795 133.144196 167.429612 135.544891 166.39299L 149.834106 179.804093C 152.491699 177.91829 153.553589 177.164902 154.615417 176.411301C 155.677307 175.6577 156.739105 174.904007 159.396912 173.017411L 151.479919 155.083786C 153.251709 153.159195 154.224304 152.102585 155.197021 151.046006C 156.169617 149.989395 157.142212 148.932785 158.914001 147.008194L 177.416901 153.442704C 179.079193 150.636002 179.742798 149.515396 180.406982 148.393814C 181.070496 147.273514 181.734497 146.152298 183.394897 143.348709L 168.874817 130.188706C 169.711395 127.709488 170.170593 126.348191 170.629822 124.986801C 171.088898 123.625504 171.548096 122.264115 172.384705 119.784989L 191.90332 118.130081C 192.281403 114.891007 192.432312 113.596787 192.583313 112.302597C 192.734314 111.008316 192.885315 109.714096 193.263306 106.474991L 174.650604 100.363907C 174.407288 97.758591 174.273804 96.327988 174.14032 94.897293C 174.006805 93.466599 173.873291 92.035996 173.630005 89.43068L 190.789001 79.972397C 189.818695 76.860794 189.430603 75.616898 189.042694 74.373917C 188.65448 73.129715 188.266479 71.886307 187.295288 68.771897L 167.809204 70.766495C 166.526917 68.48259 165.823303 67.229996 165.11908 65.97609C 164.416504 64.725205 163.713196 63.473099 162.433899 61.194596L 174.266296 45.569107L 171.858307 42.829804C 170.072388 40.798203 169.758179 40.440705 166.522797 36.759095L 149.530884 46.514481C 148.379578 45.656601 147.513306 45.011093 146.775604 44.461396C 144.825989 43.008591 143.773804 42.224594 140.730499 39.957596L 145.190002 20.864991L 134.536682 15.969101L 122.97879 31.7995C 120.427795 31.226197 119.027191 30.911194 117.626587 30.5961C 116.226013 30.281098 114.825409 29.966095 112.274292 29.392792L 108.589691 10.1353L 96.868408 10.000504L 92.744507 29.169205C 90.181 29.683792 88.77359 29.9664 87.366089 30.248902C 85.95871 30.531494 84.551208 30.814102 81.987701 31.328598L 70.7966 15.235993L 60.033508 19.884598L 64.05249 39.074601C 61.920105 40.588303 60.749084 41.419495 59.578094 42.250595C 58.407104 43.081803 57.236084 43.912995 55.103699 45.426712L 38.3414 35.281494C 36.133499 37.679505 35.251297 38.637802 34.369202 39.595993C 33.487 40.554291 32.604904 41.512497 30.397003 43.910492L 41.866302 59.80452C 40.531189 62.058792 39.798996 63.294876 39.065903 64.532486C 38.334702 65.766587 37.602798 67.002091 36.271393 69.25029L 16.836395 66.806107C 15.559006 70.591507 15.221603 71.59169 14.672302 73.219895C 14.325104 74.2491 13.893204 75.529404 13.085693 77.922898L 30.021393 87.774613C 29.718201 90.373612 29.551605 91.800888 29.384995 93.228104C 29.218506 94.655289 29.051895 96.082596 28.748703 98.681595L 10 104.361801C 10.303207 107.608414 10.424194 108.905808 10.545303 110.20308ZM 137.630493 101.328904C 137.630493 121.2108 121.512512 137.328904 101.630493 137.328904C 81.748596 137.328904 65.630493 121.2108 65.630493 101.328904C 65.630493 81.446915 81.748596 65.328904 101.630493 65.328904C 121.512512 65.328904 137.630493 81.446915 137.630493 101.328904Z"></path></g></g></g><g id="g-root-2.cu_sy_qqa1a51d5n7db-stroke" data-item-order="999880821" data-item-id="2.cu_sy_qqa1a51d5n7db" data-item-class="Part Indexed Fill Stroke" data-item-index="2" data-renderer-id="0" transform="translate(357.0001220703125, 76.146484375)"><g id="2.cu_sy_qqa1a51d5n7db-stroke" fill="none" stroke-linecap="butt" stroke-linejoin="miter" stroke-miterlimit="4" stroke="#a18a41" stroke-width="1"><g><path d="M 10.004699 89.680802C 10.006988 87.6353 10.008087 86.665909 10.012908 82.720704L 10.013488 82.72461L 32.105499 76.772904C 32.704711 74.739304 33.089386 73.433899 33.474182 72.128601C 33.858886 70.823197 34.243591 69.517899 34.842804 67.484299L 19.517303 50.4758C 20.528503 48.905503 21.178588 47.896103 21.700286 47.086106C 22.79721 45.383103 23.32669 44.560898 25.45169 41.259995L 47.255706 48.20781L 49.011383 46.689698C 50.943603 45.019104 52.043396 44.068207 54.576507 41.876801L 50.868286 19.277909C 53.508606 18.075409 54.68341 17.540497 55.861297 17.004197C 57.034301 16.4702 58.210296 15.9348 60.839813 14.737107L 75.433105 32.379807C 77.533386 32.080796 78.880584 31.88881 80.229003 31.696701C 81.573181 31.505097 82.918609 31.313401 85.012603 31.015396L 94.100006 10C 96.964294 10.416809 98.242401 10.602509 99.519897 10.788208C 100.798309 10.973999 102.076202 11.159607 104.942688 11.576798L 107.691711 34.312912C 110.206695 35.467408 111.545684 36.081711 113.245086 36.861298C 114.147796 37.275406 115.152008 37.7361 116.488189 38.349198L 135.485107 25.591004C 139.005584 28.651902 139.385589 28.9823 141.681304 30.979004C 142.236999 31.462403 142.904998 32.043305 143.756988 32.784302L 133.788696 53.395508L 139.010284 61.550599L 161.885467 61.099411C 162.205291 62.195099 162.455413 63.051712 162.663116 63.763413C 163.509979 66.664811 163.6539 67.157608 164.959075 71.625504L 145.439422 83.566208L 145.427581 93.251511L 164.918609 105.250809C 164.100189 108.029602 163.735076 109.269303 163.369781 110.509003C 163.004486 111.74881 162.639068 112.988511 161.819915 115.767609L 138.945587 115.248398C 137.798095 117.030304 137.061492 118.174408 136.324981 119.318512C 135.588501 120.462616 134.851989 121.60669 133.704406 123.388611L 143.622894 144.029114L 135.334289 151.197998L 116.367309 138.383118C 114.1622 139.386902 112.859893 139.980103 111.428283 140.632203C 110.356109 141.120514 109.211395 141.641999 107.560485 142.393708L 104.757293 165.121094L 93.911407 166.665314L 84.874694 145.623505C 83.033996 145.355896 81.772003 145.172303 80.580291 144.99881C 79.058105 144.777314 77.650787 144.572602 75.298889 144.230896L 60.663879 161.829712C 58.031494 160.621918 56.857482 160.0831 55.68338 159.544312C 54.509399 159.005494 53.335296 158.466706 50.70288 157.258912L 54.464904 134.670502L 47.158996 128.317017L 25.338501 135.199707L 23.954803 133.037995C 22.224395 130.334504 21.993194 129.973389 19.426788 125.965607L 34.793792 109.003006C 33.618499 104.981308 33.274902 103.804306 32.121307 99.852707L 32.078399 99.705704L 10 93.686798L 10.004699 89.680802ZM 123.479583 88.334C 123.479583 68.452011 107.361511 52.334 87.479583 52.334C 67.597595 52.334 51.479583 68.451996 51.479583 88.334C 51.479583 108.215897 67.597595 124.334015 87.479583 124.334015C 107.361511 124.334015 123.479583 108.215897 123.479583 88.334Z"></path></g></g></g><g id="g-root-1.cu_sy_qqa1a51d5n7da-stroke" data-item-order="999880823" data-item-id="1.cu_sy_qqa1a51d5n7da" data-item-class="Part Indexed Indexed_1 Fill Stroke" data-item-index="1" data-renderer-id="0" transform="translate(254.00009155273438, 2.5)"><g id="1.cu_sy_qqa1a51d5n7da-stroke" fill="none" stroke-linecap="butt" stroke-linejoin="miter" stroke-miterlimit="4" stroke="#746330" stroke-width="1"><g><path d="M 10 93.720596L 27.633697 81.694L 27.633697 73.306L 10 61.279297C 11.0354 58.108299 11.337707 57.182098 11.871398 55.546898C 12.149108 54.696404 12.489288 53.654099 13.027893 52.004204L 34.396087 52.5923C 35.127014 51.591103 35.69281 50.816101 36.207885 50.110497C 37.179199 48.779999 37.970489 47.696198 39.348602 45.807404L 32.183898 25.7584C 34.243896 24.2686 35.195404 23.580399 36.146789 22.892097C 37.098205 22.203903 38.049713 21.515701 40.10971 20.025902L 57.049285 33.004898C 59.602203 32.178902 60.909515 31.756104 62.835784 31.133202L 65.061706 30.4133L 71.102111 10L 80.89801 10L 86.938293 30.4133C 89.4841 31.237 90.79129 31.659698 92.708801 32.2799C 93.361206 32.490898 94.084198 32.724701 94.950714 33.004898L 111.890289 20.025902C 113.950286 21.515701 114.901794 22.203903 115.85321 22.892097C 116.804596 23.580399 117.756103 24.2686 119.816101 25.7584L 112.651489 45.807404C 113.374694 46.798302 113.936401 47.567596 114.447204 48.267303C 115.425903 49.607803 116.2182 50.693199 117.603912 52.5924L 138.972106 52.004204C 140.043304 55.284698 140.329803 56.162697 140.899688 57.9086C 141.167205 58.728203 141.497192 59.738998 142 61.279297L 124.366302 73.306L 124.366302 81.694L 142 93.720703C 140.93161 96.992798 140.643707 97.874603 140.07669 99.611694C 139.808502 100.433594 139.477691 101.446991 138.972106 102.995804L 117.60379 102.407593C 116.878814 103.401001 116.316192 104.1716 115.80429 104.872696C 114.827392 106.210907 114.035308 107.295807 112.651397 109.192596L 119.816101 129.241608C 117.756103 130.7314 116.804596 131.419601 115.85321 132.107895C 114.901794 132.796097 113.950286 133.484299 111.890289 134.974106L 94.950714 121.995102C 92.426208 122.811905 91.119689 123.234406 89.22821 123.8461L 86.938293 124.5867L 80.897918 145L 71.101989 145L 65.061706 124.5867C 61.649688 123.482697 60.462616 123.098999 57.049285 121.995102L 40.10971 134.974106C 38.049713 133.484299 37.098205 132.796097 36.146789 132.107895C 35.195312 131.419601 34.243896 130.7314 32.183898 129.241608L 39.34851 109.192596C 38.615997 108.188995 38.049285 107.412704 37.533111 106.705795C 36.563507 105.377594 35.772491 104.294098 34.396087 102.407593L 13.027801 102.995804C 11.992706 99.8255 11.690307 98.899002 11.156799 97.264603C 10.879089 96.413803 10.538787 95.371307 10 93.720596ZM 112.001007 77.5C 112.001007 57.618103 95.882904 41.5 76.001007 41.5C 56.11911 41.5 40.001007 57.618103 40.001007 77.5C 40.001007 97.381897 56.118988 113.5 76.001007 113.5C 95.882904 113.5 112.001007 97.381897 112.001007 77.5Z"></path></g></g></g><g id="g-root-tx_lanzarpl_1hckkxp1d5n7d8-stroke" data-item-order="1000000000" data-item-id="tx_lanzarpl_1hckkxp1d5n7d8" data-item-class="Label Stroke Indexed Indexed_1" data-item-index="1" data-renderer-id="0" transform="translate(62, 46)"></g><g id="g-root-lear_18gxkot1d5u7t2-stroke" data-item-order="1000000000" data-item-id="lear_18gxkot1d5u7t2" data-item-class="Icon Stroke Indexed Indexed_1 InsideFill InsideColorFill" data-item-index="1" data-renderer-id="0" transform="translate(296, 46.001953125)"><g id="lear_18gxkot1d5u7t2-stroke" fill="none" stroke-linecap="butt" stroke-linejoin="miter" stroke-miterlimit="4" stroke="#ce9e07" stroke-width="1"><g><path d="M 42.931999 11L 54.931999 11C 54.931999 11 56.931999 11 56.931999 13L 56.931999 15C 56.931999 15 56.931999 17 54.931999 17L 42.931999 17C 42.931999 17 40.931999 17 40.931999 15L 40.931999 13C 40.931999 13 40.931999 11 42.931999 11M 19.568001 17.5C 19.568001 20.537567 22.030434 23 25.068001 23C 28.105566 23 30.568001 20.537567 30.568001 17.5C 30.568001 14.462435 28.105566 12 25.068001 12C 22.030434 12 19.568001 14.462435 19.568001 17.5M 38.41 24.125999C 37.375313 22.836683 35.49258 22.627392 34.200001 23.658001L 32.760002 24.810001C 30.985342 26.229116 28.780289 27.00152 26.507999 27L 21.524 27C 19.252399 27.001722 17.049246 27.777731 15.278 29.199999L 12.2 31.658001C 10.906549 32.693535 10.697466 34.581551 11.733 35.875C 12.768534 37.168449 14.656549 37.377533 15.950001 36.342003L 20.122 33L 22.068001 33L 22.068001 40.292L 18.6 47.222L 14.1 51.726002C 12.927943 52.838646 12.788788 54.658051 13.778 55.936001C 14.319562 56.576958 15.104813 56.961807 15.943185 56.997154C 16.781557 57.032497 17.596413 56.715103 18.190001 56.122002L 23.189999 51.122002C 23.417305 50.895237 23.606417 50.633183 23.75 50.346001L 26.408001 45.029999L 30.266001 46.958L 31.084 54.335999C 31.254959 55.852806 32.53759 56.999428 34.064003 57C 34.24556 56.999943 34.426811 56.985229 34.606003 56.956001C 36.163761 56.681641 37.23629 55.238731 37.050003 53.668003L 36.049999 44.667999C 35.936085 43.656101 35.318279 42.770405 34.408001 42.313999L 28.068001 39.146L 28.068001 33L 28.612 33C 30.884121 32.997772 33.087746 32.221848 34.860001 30.800001L 37.944 28.334C 39.2314 27.298868 39.43972 25.417734 38.410004 24.125999ZM 41.158001 36.143997C 46.051331 38.59013 51.810673 38.59013 56.704002 36.144001M 43.556 29.648001C 46.919239 31.424145 50.942764 31.424145 54.306 29.648001M 45.924 23.214001C 47.770569 24.339943 50.091434 24.339943 51.938 23.214001"></path></g></g></g><g id="g-root-netw_18gxkot1d5u7t3-stroke" data-item-order="1000000000" data-item-id="netw_18gxkot1d5u7t3" data-item-class="Icon Stroke Indexed InsideFill InsideColorFill" data-item-index="2" data-renderer-id="0" transform="translate(410, 130)"><g id="netw_18gxkot1d5u7t3-stroke" fill="none" stroke-linecap="butt" stroke-linejoin="miter" stroke-miterlimit="4" stroke="#ce9e07" stroke-width="1"><g><path d="M 44 24.040001L 50.216 17.868M 49 15C 49 17.209139 50.790859 19 53 19C 55.209141 19 57 17.209139 57 15C 57 12.790861 55.209141 11 53 11C 50.790859 11 49 12.790861 49 15ZM 45.924 45.958L 50.153999 50.214001M 49.02 53C 49.02 55.209141 50.81086 57 53.02 57C 55.229137 57 57.02 55.209141 57.02 53C 57.02 50.790859 55.229137 49 53.02 49C 50.81086 49 49.02 50.790859 49.02 53ZM 24 24.040001L 17.785999 17.868M 11 15C 11 17.209139 12.790861 19 15 19C 17.209139 19 19 17.209139 19 15C 19 12.790861 17.209139 11 15 11C 12.790861 11 11 12.790861 11 15ZM 22.077999 45.958L 17.846001 50.214001M 10.98 53C 10.98 55.209141 12.770861 57 14.98 57C 17.189138 57 18.98 55.209141 18.98 53C 18.98 50.790859 17.189138 49 14.98 49C 12.770861 49 10.98 50.790859 10.98 53ZM 43 33L 49 33M 49 33C 49 35.209137 50.790859 37 53 37C 55.209141 37 57 35.209137 57 33C 57 30.790861 55.209141 29 53 29C 50.790859 29 49 30.790861 49 33ZM 25 33L 19 33M 11 33C 11 35.209137 12.790861 37 15 37C 17.209139 37 19 35.209137 19 33C 19 30.790861 17.209139 29 15 29C 12.790861 29 11 30.790861 11 33ZM 25.02 43C 25.02 38.029438 29.049437 34 34.02 34C 38.990562 34 43.02 38.029438 43.02 43ZM 28.52 26.5C 28.52 29.537567 30.982435 32 34.02 32C 37.057568 32 39.52 29.537567 39.52 26.5C 39.52 23.462435 37.057568 21 34.02 21C 30.982435 21 28.52 23.462435 28.52 26.5Z"></path></g></g></g><g id="g-root-tx_implemen_1uo13b11d5n5sb-stroke" data-item-order="1000000000" data-item-id="tx_implemen_1uo13b11d5n5sb" data-item-class="Label Stroke Indexed" data-item-index="2" data-renderer-id="0" transform="translate(536, 118)"></g><g id="g-root-tx_mejorarl_8xr2m51d5n7ka-stroke" data-item-order="1000000000" data-item-id="tx_mejorarl_8xr2m51d5n7ka" data-item-class="Label Stroke Indexed" data-item-index="3" data-renderer-id="0" transform="translate(2, 202)"></g><g id="g-root-2_v97wu51d5u7es-stroke" data-item-order="1000000000" data-item-id="2_v97wu51d5u7es" data-item-class="Icon Stroke Indexed InsideFill InsideColorFill" data-item-index="3" data-renderer-id="0" transform="translate(272, 214)"><g id="2_v97wu51d5u7es-stroke" fill="none" stroke-linecap="butt" stroke-linejoin="miter" stroke-miterlimit="4" stroke="#ce9e07" stroke-width="1"><g><path d="M 56.5 51.537998C 56.5 54.299423 54.261425 56.538002 51.5 56.538002L 16.5 56.537998C 13.738577 56.538002 11.5 54.299423 11.5 51.538002C 11.5 48.776577 13.738577 46.538002 16.5 46.538002L 51.5 46.537998C 54.261425 46.538002 56.5 48.776577 56.5 51.538002ZM 18.32 36.302002L 29.827999 36.302002L 29.827999 46.538002L 18.32 46.538002ZM 18 51.537998C 18 52.090286 18.447716 52.537998 19 52.537998C 19.552284 52.537998 20 52.090286 20 51.537998C 20 50.985714 19.552284 50.537998 19 50.537998C 18.447716 50.537998 18 50.985714 18 51.537998M 28 51.537998C 28 52.090286 28.447716 52.537998 29 52.537998C 29.552284 52.537998 30 52.090286 30 51.537998C 30 50.985714 29.552284 50.537998 29 50.537998C 28.447716 50.537998 28 50.985714 28 51.537998M 38.084 51.537998C 38.084 52.090286 38.531715 52.537998 39.084 52.537998C 39.636284 52.537998 40.084 52.090286 40.084 51.537998C 40.084 50.985714 39.636284 50.537998 39.084 50.537998C 38.531715 50.537998 38.084 50.985714 38.084 51.537998M 48.084 51.537998C 48.084 52.090286 48.531715 52.537998 49.084 52.537998C 49.636284 52.537998 50.084 52.090286 50.084 51.537998C 50.084 50.985714 49.636284 50.537998 49.084 50.537998C 48.531715 50.537998 48.084 50.985714 48.084 51.537998M 24.074001 40.388L 24.074001 36.302002M 39.084 36.302002L 50.591999 36.302002L 50.591999 46.538002L 39.084 46.538002ZM 44.838001 40.388L 44.838001 36.302002M 54.543999 21.439999L 44.563999 11.462L 44.563999 17.948L 16.048 17.948L 16.048 25.262001L 44.563999 25.262001L 44.563999 31.42L 54.543999 21.439999Z"></path></g></g></g><g id="g-root-hand_1cwr2t91d5u70t-stroke" data-item-order="1000000000" data-item-id="hand_1cwr2t91d5u70t" data-item-class="Icon Stroke Indexed InsideFill InsideColorFill" data-item-index="4" data-renderer-id="0" transform="translate(398, 298)"><g id="hand_1cwr2t91d5u70t-stroke" fill="none" stroke-linecap="butt" stroke-linejoin="miter" stroke-miterlimit="4" stroke="#ce9e07" stroke-width="1"><g><path d="M 20.908001 27.620001C 19.739769 22.631084 21.615746 17.421778 25.696476 14.323119C 29.777206 11.22446 35.298946 10.816385 39.790855 13.2815C 44.282768 15.746613 46.904148 20.62355 46.481998 25.73M 21.82 19.102001L 24.278 19.102001C 26.260609 19.251587 27.836411 20.827391 27.986 22.809999L 27.986 26.264C 27.986 26.775999 28.441999 27.218 28.944 27.618M 36.498001 12.024C 36.498001 12.024 34.334 13.728 33.542 14.337999C 32.206818 15.366749 31.946564 17.277655 32.958 18.625999L 34.82 21.110001C 35.402084 21.885067 36.314697 22.341372 37.284 22.341999L 39.084 22.341999C 39.901016 22.34128 40.684715 22.66584 41.262001 23.243999L 42.683998 24.664M 50.669998 48.217999L 40.686001 49.049999M 38.858002 36.43L 31.884001 38.736C 30.766323 39.103287 29.550863 38.574265 29.058001 37.506001C 28.525827 36.361473 28.996387 35.001095 30.122 34.43L 36.877998 31.030001C 38.041801 30.443649 39.396461 30.365454 40.619999 30.813999L 50.619999 34.472M 31.152 33.912003L 30.431999 33.312C 29.254356 32.449097 27.714605 32.255493 26.360001 32.799999L 17.41 36.379997M 11.376 32.956001L 15.4 32.956001C 16.463615 32.910805 17.363367 33.734535 17.412001 34.798L 17.412001 47.702C 17.363358 48.765755 16.463955 49.590057 15.4 49.546001L 11.376 49.546001M 56.624001 49.546001L 52.599998 49.546001C 51.536045 49.590057 50.636642 48.765755 50.588001 47.702L 50.588001 34.799999C 50.636631 33.736534 51.536385 32.912807 52.599998 32.958L 56.622002 32.958M 36.096001 38L 41.295998 45.138C 41.952049 46.038876 42.011395 47.243034 41.447113 48.204052C 40.882828 49.16507 39.802361 49.699963 38.695999 49.566002C 38.425995 51.00877 37.078117 51.990959 35.622002 51.806C 35.351105 53.248432 34.004227 54.230766 32.548 54.048C 32.331886 55.135815 31.494066 55.993546 30.411625 56.235146C 29.329185 56.476746 28.206161 56.056675 27.548 55.164001L 22.302 48.571999C 21.525995 47.586224 20.35574 46.991589 19.102001 46.945999L 17.41 46.886002M 32.556 54.043999L 31.152 52.32M 35.629997 51.801998L 34.428001 50.206001M 38.704002 49.562L 37.389999 47.776001"></path></g></g></g><g id="g-root-tx_fortalec_m97kzh1d5n5zd-stroke" data-item-order="1000000000" data-item-id="tx_fortalec_m97kzh1d5n5zd" data-item-class="Label Stroke Indexed" data-item-index="4" data-renderer-id="0" transform="translate(512, 286)"></g></g></g></svg>